<?xml version="1.0" encoding="UTF-8"?>
<svg width="1125" height="1355.6" version="1.1" viewBox="0 0 1125 1355.625" xmlns="http://www.w3.org/2000/svg">
 <path d="m666.71 2.1797l-293.29 62.951 3.3945 159.53-372.52-20.756 5.7227 450.67 376.55 28.711 2.5859 121.51 10.014 447.81 472.13 97.287 248.94-271.83-5.7226-1048.7v-15.738l-447.81-11.445z" fill="#b2e6b1" fill-rule="evenodd"/>
 <path d="m329.06 223.94 1.4307-31.475 383.43 18.599 25.753 127.33-246.08 85.842-2.8614-196.01z" fill="#f9f9f9" fill-rule="evenodd"/>
 <path d="m191.68 301.04l-0.36719 92.9 116.03 3.6719 0.73437-89.596-116.4-6.9766zm407.53 280.13l-43.555 17.525 4.3809 68.295 103.35 9.2793 0.51562-86.596-64.689-8.5039zm-38.346 379.96l1.0527 84.586 103.89 18.602 1.4024-87.041-106.35-16.146z" fill="#ffffc0" fill-rule="evenodd"/>
 <path d="m875.46 1354c-0.57047-0.6874-1.918-0.9608-3.1773-0.6448-1.2027 0.3019-3.5802 0.132-5.2833-0.3774-1.7032-0.5095-7.3154-1.8524-12.472-2.9844-5.1562-1.1319-11.273-2.614-13.594-3.2935s-6.0816-1.4834-8.3585-1.7864c-5.4031-0.7192-17.987-3.3235-18.958-3.9236-0.41682-0.2577-2.3513-0.6619-4.2988-0.8985-4.4148-0.5362-7.5261-1.1128-15.26-2.828-11.788-2.6143-24.94-5.3009-34.219-6.9899-5.1562-0.9386-11.484-2.2207-14.062-2.8491-2.5781-0.6284-5.7422-1.2706-7.0312-1.427-1.2891-0.1565-11.625-2.2244-22.969-4.5954-33.386-6.9782-56.637-11.708-65.156-13.256-4.3828-0.7963-8.8125-1.8022-9.8438-2.2354-1.0312-0.4333-2.5078-0.8105-3.2812-0.8381-0.77344-0.028-3.3047-0.456-5.625-0.9517s-7.3828-1.5345-11.25-2.3084c-7.3797-1.4768-12.355-2.5088-32.344-6.7085-12.242-2.572-17.995-3.7243-31.875-6.3843-4.125-0.7905-11.93-2.4773-17.344-3.7485-5.4141-1.2711-12.955-2.7865-16.757-3.3673s-9.9194-1.8591-13.594-2.8406c-3.6743-0.9815-10.688-2.4713-15.587-3.3108-4.8984-0.8394-11.016-2.0866-13.594-2.7713-7.6443-2.0305-15.591-3.5208-26.25-4.9229-2.0625-0.2713-4.1719-0.8186-4.6875-1.2163-0.51563-0.3977-2.8359-0.9627-5.1562-1.2554-3.7135-0.4686-10.73-1.7113-16.406-2.9056-1.0312-0.217-5.0391-1.0571-8.9062-1.867-20.448-4.282-22.062-5.2114-22.909-13.194-0.74685-7.0331-1.5852-46.962-2.8836-137.34-0.59309-41.285-1.1072-65.14-1.859-86.25-1.0502-29.49-1.3599-43.253-1.8461-82.031-0.27801-22.172-0.72934-46.219-1.003-53.438-1.2466-32.887-2.7802-130.72-2.7802-177.35v-22.663l-3.75-0.50606c-2.0625-0.27833-7.7578-0.75611-12.656-1.0617s-15.234-1.1531-22.969-1.8832c-7.7344-0.73018-19.125-1.5987-25.312-1.9301-6.1875-0.33137-11.468-0.72887-11.735-0.88335s-6.8057-0.57895-14.531-0.94327-14.296-0.80542-14.6-0.98022c-0.3047-0.1748-14.438-1.3857-31.406-2.6909-16.969-1.3052-35.915-2.7972-42.102-3.3156-13.466-1.1282-43.633-3.3217-65.625-4.7716-8.7656-0.57791-16.179-1.1982-16.475-1.3785s-5.147-0.56465-10.781-0.8542-13.05-0.75414-16.48-1.0324c-3.4295-0.27829-13.133-0.94701-21.562-1.486-20.822-1.3314-21.584-1.3855-31.733-2.2538-4.8984-0.41907-10.172-0.68044-11.719-0.58082-4.3544 0.28042-18.94-1.6281-21.558-2.8208l-2.3444-1.0682 0.1507-15.554c0.082888-8.5545-0.12995-35.171-0.47297-59.147-0.34302-23.977-0.84182-58.992-1.1085-77.812s-0.69839-41.18-0.95946-49.688c-0.40029-13.045-1.0682-50.083-1.3863-76.875-0.14519-12.23-1.8563-69.485-2.3394-78.281-1.0914-19.869-1.4991-91.006-0.53608-93.532 1.6768-4.3999 3.6018-4.5757 33.695-3.0776 62.487 3.1109 71.397 3.5331 82.172 3.8937 17.01 0.56933 26.412 1.0381 34.688 1.7294 4.125 0.3446 10.242 0.81603 13.594 1.0476s6.5156 0.47179 7.0312 0.53376c0.51562 0.062 1.3594-0.0207 1.875-0.18377 0.51562-0.16305 6.8438 0.0157 14.062 0.39705 7.2188 0.38143 16.711 0.87746 21.094 1.1023 4.3828 0.22484 11.555 0.64176 15.938 0.92651 4.3828 0.28474 13.242 0.70564 19.688 0.93533 25.853 0.92128 56.41 2.4073 67.42 3.2787 13.724 1.0862 12.606 1.7216 12.351-7.0178-0.48147-16.489 3.544-21.909 15.385-20.712 3.0938 0.31271 11.861 0.82035 19.483 1.1281l13.858 0.55956-0.48915-33.629c-0.26904-18.496-0.72474-46.592-1.0127-62.435-0.68073-37.453-2.9852-34.581 33.317-41.524 3.3516-0.64096 9.6797-1.8774 14.062-2.7476 4.3828-0.8702 12.398-2.4275 17.812-3.4606s13.852-2.7402 18.75-3.7936 12.07-2.4656 15.938-3.1384c8.415-1.4639 15.672-2.9861 22.031-4.6213 5.2591-1.3522 22.845-4.978 30-6.1851 2.5781-0.43497 6.1641-1.2091 7.9688-1.7203 1.8047-0.51118 8.1328-1.8267 14.062-2.9234 16.073-2.9726 32.947-6.3977 44.531-9.0387 5.6719-1.2931 13.477-2.9055 17.344-3.5832s9.9844-1.9217 13.594-2.7646c3.6094-0.84283 9.5156-2.1281 13.125-2.8562 18.442-3.7203 21.648-4.4747 22.691-5.3404 1.0317-0.85627 25.682-1.0223 36.84-0.24821 2.3203 0.16097 22.781 0.50689 45.469 0.76871 43.866 0.50624 107.72 1.4146 134.06 1.9071 28.637 0.53543 106.56 1.4344 169.22 1.9521 72.145 0.59612 68.576 0.33018 73.445 5.4739l3.6897 3.8984-0.6001 33.75c-0.6773 38.102-0.7064 102.1-0.1002 221.25 0.2282 44.859 0.6043 177.54 0.836 294.84 0.3948 199.99 0.8875 289.02 1.9324 349.22 0.2417 13.922 0.6712 41.133 0.9545 60.469 0.9969 68.056 1.4917 92.194 1.9035 92.86 2.0048 3.2439-4.9133 19.195-9.8619 22.739-2.4476 1.7527-13.136 14.491-13.136 15.656 0 0.5741-0.3764 0.8112-0.8364 0.5269-0.4602-0.2844-4.1516 3.16-8.2032 7.6542-6.8399 7.5869-14.293 15.663-26.188 28.377-2.6533 2.8359-6.4648 7.0316-8.47 9.3237-2.0052 2.2922-4.9115 5.5089-6.4583 7.1482-3.9158 4.1498-14.524 16.057-18.317 20.559-1.7375 2.0625-5.9283 6.7031-9.3129 10.312-3.3847 3.6093-9.3104 10.116-13.168 14.46-3.8578 4.3438-9.5518 10.672-12.653 14.062-3.1015 3.3906-7.3203 8.0563-9.375 10.368-2.0547 2.312-6.5835 7.1955-10.064 10.852-3.4805 3.6568-6.3281 6.8539-6.3281 7.1048s-2.8477 3.386-6.3281 6.9669c-7.9195 8.1483-20.084 21.672-21.328 23.711-0.51562 0.8453-3.8906 4.6711-7.5 8.502-14.32 15.199-27.541 29.792-39.129 43.191-3.3447 3.8672-8.218 9.2389-10.83 11.937-2.6116 2.6982-5.0184 5.7568-5.3485 6.7969-0.33011 1.0401-0.99365 1.8911-1.4745 1.8911-0.48087 0-0.87432 0.8438-0.87432 1.875 0 1.0313 0.44678 1.875 0.99283 1.875 0.54606 0 0.74869 0.3951 0.45029 0.8779-0.75452 1.2208-4.1589 0.837-5.3546-0.6037zm-5.3281-18.79c0.15342-10.355 0.10556-16.097-0.70919-85.078-0.32278-27.328-0.73453-51.586-0.915-53.906-0.18048-2.3203-0.62048-21.199-0.9778-41.953s-0.81251-37.734-1.0115-37.734c-0.80198 0-5.2111 5.4959-8.9223 11.122-2.1644 3.2809-4.1055 5.4545-4.3136 4.8303-0.20807-0.6242 0.41491-2.2539 1.3844-3.6215 0.9695-1.3676 2.3076-3.5577 2.9736-4.8669 0.666-1.3091 3.0857-4.8868 5.3771-7.9502 3.9364-5.2629 4.166-5.9073 4.1619-11.682l-5e-3 -6.1122-2.622 2.8125c-3.2762 3.5146-13.306 17.877-13.306 19.054 0 0.4797-0.63281 1.3974-1.4062 2.0393-2.197 1.8233-1.5968 0.067 2.4025-7.0312 2.0337-3.6094 3.9854-7.1954 4.337-7.9688s3.0924-5.0261 6.0906-9.4504c5.2212-7.7046 8.0884-19.612 4.7224-19.612-0.74941 0-5.8338 5.4623-5.8338 6.2675 0 0.4542-11.259 15.364-12.258 16.232-1.3059 1.1355-8.4727 12.343-9.323 14.58-1.0358 2.7244-1.1969 34.299-0.43038 84.327 0.26862 17.531 0.50755 44.506 0.53096 59.944 0.0246 16.225 0.42576 28.785 0.95066 29.766 1.257 2.3486-5.501 1.7095-22.595-2.1373-8.9215-2.0076-22.442-4.7228-32.195-6.4655-5.5902-0.9989-10.917-2.0551-11.837-2.3472-6.1473-1.951-18.32-3.1504-19.686-1.9396-0.79077 0.7011-3.0225 1.9291-4.9594 2.7289-2.1164 0.874-3.8813 2.4005-4.4231 3.8255-0.58003 1.5256-1.3912 2.1833-2.2748 1.8442-1.486-0.5703-8.7542 4.4891-15.543 10.819-4.2566 3.969-6.2943 3.7811-3.1435-0.2899 5.2269-6.7534 12.068-14.323 13.798-15.269 1.0905-0.5959 2.9464-2.3913 4.1242-3.9898l2.1415-2.9065-2.3067-1.0509c-2.8952-1.3192-7.9184-0.2866-6.3306 1.3013 0.5902 0.5902 1.0398 1.727 0.99908 2.5262-0.0492 0.9657-0.23265 1.06-0.54687 0.2813-0.26007-0.6446-1.0705-1.1719-1.801-1.1719-1.3902 0-1.4307-0.081-1.7915-3.5782-0.4376-4.241-2.3491-4.6059-2.3491-0.4484 0 3.5303-0.32943 4.0447-3.9844 6.2219-3.8168 2.2738-8.0832 5.7728-17.613 14.445-2.408 2.1914-4.6509 3.9844-4.9842 3.9844-1.8939 0 0.0545-3.1587 4.7847-7.7572 12.06-11.724 16.165-17.166 14.717-19.509-1.0149-1.6421-3.9638-0.8446-5.4902 1.485-0.84463 1.289-2.1817 2.3437-2.9713 2.3437-0.78959 0-4.3638 2.5203-7.9428 5.6005-3.5789 3.0804-7.6691 6.3499-9.0893 7.2657s-3.2151 2.1747-3.9887 2.7975c-0.77365 0.6228-3.0652 2.4305-5.0924 4.0171s-4.7315 4.4237-6.0097 6.3046c-2.283 3.3598-2.338 3.3817-3.1271 1.2486-1.1838-3.2003 3.154-8.4586 16.6-20.122 14.194-12.313 14.887-13.235 10.645-14.167-4.4448-0.9763-11.18 2.9544-21.32 12.441-4.8245 4.5142-9.973 8.8824-11.441 9.7071s-5.268 3.9056-8.4443 6.8463c-9.4852 8.7816-8.6433 4.8078 0.97374-4.5959 3.1639-3.0937 6.3298-6.6796 7.0352-7.9687 1.6674-3.0469 7.2045-8.8044 13.383-13.915 6.065-5.0173 6.075-5.3694 0.18823-6.6319-5.7787-1.2394-5.5789-1.2388-5.5789-0.015 0 1.3375-6.524 7.437-7.9546 7.437-1.3895 0-4.4343 3.2362-3.7184 3.952 0.28526 0.2853-0.75905 0.9642-2.3207 1.5085-3.2872 1.146-7.6618 4.852-5.7272 4.852 0.71515 0 0.28586 0.7966-0.9951 1.8465-1.239 1.0156-3.0559 2.5976-4.0375 3.5156s-1.484 1.1418-1.1166 0.4973c0.8308-1.4573-0.57265-1.5418-1.9943-0.1201-0.57846 0.5784-0.83398 1.7386-0.56781 2.5781 0.31245 0.9855 0.20344 1.144-0.30764 0.447-0.54252-0.7397-2.6135 0.6338-6.5825 4.3654-6.077 5.7136-6.3414 6.5577-2.0543 6.5577 1.4429 0 4.4312 0.6014 6.6406 1.3364s5.5169 1.5634 7.35 1.8409c1.8331 0.2774 6.9186 1.3405 11.301 2.3624 4.3826 1.0219 10.055 2.1248 12.605 2.4507 2.5499 0.326 6.9566 1.1601 9.7925 1.8535 2.8359 0.6933 9.7969 2.1485 15.469 3.2336 9.5551 1.8279 24.412 4.9768 35.625 7.5503 2.5781 0.5918 8.0625 1.6359 12.188 2.3203 7.2537 1.2036 25.245 4.8509 52.5 10.643 7.2188 1.5341 14.391 2.992 15.938 3.2398 1.5469 0.2478 4.5332 0.9183 6.6363 1.4901s7.1656 1.6653 11.25 2.4302c4.0844 0.7648 11.223 2.1951 15.864 3.1785 13.721 2.9077 12.634 3.5142 12.792-7.133zm-133.26-32.974c0-2.1855 13.934-12.142 16.138-11.531 0.36817 0.102 0.4631-0.3522 0.21097-1.0093-0.40449-1.054 13.034-10.97 14.867-10.97 2.5279 0-1.1395 7.4155-4.0283 8.1454-1.2891 0.3256-3.9844 1.6848-5.9897 3.0202-2.0053 1.3355-5.105 3.1891-6.8882 4.1191-1.7832 0.9301-5.3484 3.3559-7.9226 5.3906-4.6824 3.7013-6.387 4.458-6.387 2.8351zm-96.383-11.839c5.6014-6.912 17.329-19.041 25.584-26.46 7.4211-6.6695 13.026-4.7518-50.138-17.154-10.055-1.9743-20.08-4.0322-22.279-4.5732-5.6156-1.3817-5.6987-1.356-7.441 2.2977-0.8606 1.8046-2.0139 3.2872-2.563 3.2945-0.54904 0.01-3.5295 2.4004-6.6232 5.3181-3.0938 2.9176-7.2994 6.5186-9.346 8.0023-4.9464 3.5859-12.207 9.8122-16.106 13.812-3.6453 3.739-3.4157 4.0066 4.8275 5.6273 3.0938 0.6082 7.3025 1.5443 9.3528 2.0803 2.0503 0.5358 6.0581 1.3336 8.9062 1.7727 2.8482 0.4391 9.1863 1.677 14.085 2.751 7.8316 1.7169 18.376 3.9349 37.969 7.9865 8.5908 1.7765 8.4379 1.8293 13.773-4.7545zm192.03-29.619c-0.0487-11.012-0.26627-67.271-0.48359-125.02s-0.64502-115.55-0.95042-128.44c-0.30541-12.891-0.72999-30.586-0.94352-39.322-0.25085-10.264-0.0406-16.304 0.59419-17.068 1.3848-1.6686 0.187-3.1409-2.5551-3.1409-1.2804 0-5.3754-0.62944-9.1-1.3988-11.512-2.3778-54.47-9.118-57.836-9.0745-0.77344 0.01-5.8359-0.78994-11.25-1.7776s-13.219-2.2226-17.344-2.7443c-12.597-1.593-25.236-3.5328-26.719-4.1006-0.77344-0.29616-4.1484-0.73249-7.5-0.96961s-9.4688-1.0469-13.594-1.7996c-14.356-2.6194-21.094-2.9428-21.094-1.0123 0 0.9284-2.0217 3.6079-4.4927 5.9545s-7.172 7.2196-10.447 10.829c-11.304 12.459-15.472 16.578-15.795 15.608-0.7949-2.3847 9.7835-15.617 21.296-26.639 7.7509-7.4205 7.739-7.384 2.8905-8.8972-7.3398-2.2907-11.962 0.0113-24.827 12.363-9.4586 9.0819-10.813 10.039-10.813 7.6387 0-1.3349 9.7958-12.498 15.802-18.008 3.6016-3.3039 3.2796-5.0347-0.93686-5.0347-3.2282 0-11.454 6.7745-22.76 18.745-12.926 13.685-14.875 15.503-15.303 14.27-0.5881-1.696 5.2894-9.1615 17.44-22.151 10.88-11.631 11.63-12.739 8.6315-12.739-3.8564 0-6.8673 2.13-16.651 11.779-5.5706 5.494-12.027 11.525-14.347 13.402s-4.3916 3.8346-4.6028 4.3502c-0.21123 0.51562-3.0776 3.7328-6.3697 7.1494-6.3629 6.6034-6.3658 7.3819-0.0279 7.3819 1.5998 0 5.2567 0.606 8.1265 1.3466 2.8698 0.74062 11.335 2.2578 18.812 3.3714 7.4766 1.1137 16.969 2.6519 21.094 3.4183 9.1719 1.7042 28.561 4.0041 33.984 4.0312 2.7548 0.0141 4.5808 0.61641 5.917 1.9526 2.0726 2.0726 2.1333 6.2113 0.0847 5.7785-0.67062-0.14165-0.93803 0.19754-0.59425 0.75375 0.34379 0.55632 0.80609 16.56 1.0273 35.565 0.22126 19.004 0.56238 36.595 0.75805 39.09 0.66745 8.5118-7.6399 13.844-15.235 9.7791-0.87503-0.4684-3.484-1.0889-5.7977-1.379-5.5245-0.6927-12.034-1.7666-31.863-5.2563-9.0234-1.588-18.727-3.2664-21.562-3.7296-31.503-5.1463-37.458-6.5445-38.023-8.9276-0.59433-2.5067-2.1132-67.505-1.7803-76.184 0.1434-3.7383 0.12763-6.7969-0.0351-6.7969-0.58451 0-25.407 25.214-29.435 29.899-3.8136 4.436-5.7346 5.8077-5.7216 4.0856 3e-3 -0.38671 4.2571-5.9766 9.4537-12.422 10.035-12.447 10.499-12.986 24.262-28.173 4.8822-5.3878 10.367-11.469 12.188-13.514 1.8209-2.0452 4.3654-4.8252 5.6545-6.1778s4.8444-5.3746 7.9009-8.9378c3.0564-3.5631 7.3906-8.2956 9.6314-10.517 4.8317-4.7889 4.6415-5.4376-1.8302-6.2402-2.7064-0.33567-7.0302-0.99008-9.6083-1.4542-2.5781-0.46417-8.6953-1.5366-13.594-2.3833-4.8984-0.84664-9.9609-1.7894-11.25-2.0951-1.2891-0.30569-3.0951-0.58014-4.0134-0.60989-0.91832-0.0297-2.0463-0.65975-2.5067-1.4-0.64717-1.0407-1.1355-1.0982-2.153-0.25377-1.0101 0.83834-4.2408 0.64707-13.9-0.82293-6.9209-1.0533-15.115-2.1456-18.209-2.4273l-5.625-0.51218-5.625 5.9898c-6.3941 6.8087-9.6883 10.607-11.719 13.51-0.77344 1.106-3.5972 4.4947-6.2749 7.5304-2.6778 3.0356-5.7634 6.574-6.8569 7.8631-1.0936 1.2891-5.0198 5.5227-8.7251 9.4081-3.7052 3.8853-10.32 10.96-14.699 15.722-14.568 15.841-9.0629 5.9876 7.4937-13.411 4.4007-5.1562 9.2509-11.062 10.778-13.125 1.5273-2.0625 4.8268-5.8594 7.3324-8.4375 2.5055-2.5781 6.506-7.0078 8.8899-9.8438 2.3839-2.8359 6.3543-7.4051 8.8232-10.154 4.7443-5.2818 5.3965-6.7213 3.0452-6.7213-3.3823 0-8.8844 4.0924-15.9 11.826-28.59 31.516-38.895 42.394-38.901 41.064-8e-3 -1.5756 7.0265-11.242 14.895-20.469 3.9223-4.5997 9.6628-11.361 12.757-15.025 3.0938-3.6639 7.8316-8.9715 10.529-11.795 5.4532-5.7082 5.9191-6.9956 2.8308-7.8232-4.6591-1.2486-6.218-0.56264-11.65 5.1265-3.0026 3.1446-8.2033 8.5235-11.557 11.953-3.3539 3.4296-10.631 11.038-16.172 16.908s-10.074 10.118-10.074 9.4397c0-1.4044 10.148-14.956 11.2-14.956 0.37866 0 1.7859-1.5424 3.1272-3.4275s4.9342-5.9984 7.9843-9.1406c11.58-11.93 15.991-18.358 12.611-18.38-0.90234-6e-3 -3.1172-0.2536-4.9219-0.55093-3.1728-0.52274-3.676-0.15057-15.224 11.26-6.5684 6.4905-12.158 11.801-12.422 11.801-1.4481 0 0.50501-2.4276 9.8052-12.188 11.619-12.193 11.357-11.75 7.4108-12.539-6.9177-1.3835-7.7209-0.99932-15.433 7.3828-4.0327 4.3828-7.6679 7.9688-8.0783 7.9688-1.8397 0-0.30986-2.4138 5.3476-8.4375 6.8463-7.2896 7.1647-8.0847 3.5156-8.7792-11.258-2.1426-16.325-2.6922-17.157-1.861-1.3924 1.3924-1.0107 110.71 0.50195 143.77 0.12977 2.8359 0.50899 21.82 0.84273 42.188 1.6449 100.38 1.9101 117.22 1.9456 123.52l0.0383 6.7969 3.75 0.036c5.2974 0.05 9.9996 0.7197 19.688 2.804 4.6406 0.9983 11.18 2.249 14.531 2.7791 3.3516 0.5302 8.8359 1.5944 12.188 2.3651 3.3516 0.7705 8.8359 1.8081 12.188 2.3057s9.0469 1.5604 12.656 2.3617c18.386 4.0821 72.389 15.15 80.156 16.428 2.8359 0.4667 8.1094 1.5041 11.719 2.3055 3.6094 0.8015 13.102 2.5271 21.094 3.8348 7.9922 1.3078 17.273 3.0085 20.625 3.7795 6.0114 1.3827 39.169 8.0879 48.281 9.7634 20.871 3.8376 31.802 6.5957 33.881 8.5482 2.1028 1.9755 2.2941 1.9997 3.4382 0.435 1.1344-1.5514 1.5369-1.5634 6.3213-0.1875 2.8104 0.8081 7.0082 1.6707 9.3285 1.9168 7.1256 0.7556 21.65 3.6394 23.221 4.6104 0.57497 0.3554 2.6518 0.8186 4.6153 1.0294 3.7227 0.3998 35.067 6.3332 42.576 8.0596 2.3754 0.5461 6.8051 1.3923 9.8438 1.8805 3.0387 0.4881 7.2124 1.2315 9.2749 1.6518 2.0625 0.4205 3.881 0.6752 4.041 0.5662 0.16007-0.1091 0.25123-9.208 0.20257-20.22zm-215.3-28.418c-5.9038-2.762-8.6925-6.4952-9.4162-12.605-1.4114-11.917 11.222-20.69 21.929-15.228 18.768 9.5746 6.5502 36.751-12.513 27.833zm2.7527-11.047c0.8189-6.1055 7.0446-9.5642 10.986-6.1033 0.73397 0.6445 0.58192 0.2667-0.33791-0.8396-2.3491-2.8253-9.3337-3.7948-12.481-1.7325-4.112 2.6943-5.5751 7.7148-3.036 10.418 3.0209 3.2157 4.264 2.7709 4.8694-1.7421zm14.405-55.183c-1.9743-0.4642-6.193-1.0261-9.375-1.2484-7.3298-0.5125-18.43-2.359-20.48-3.4066-1.4962-0.7649-3.5784-1.1511-20.93-3.8822-10.242-1.6121-14.773-6.2863-11.686-12.054 1.1834-2.2112 6.3231-2.5047 7.128-0.4071 0.29681 0.7734 0.96151 1.4062 1.4771 1.4062 0.51562 0 0.67556-0.6826 0.35542-1.5169-0.90706-2.3637 11.51-0.9321 13.657 1.5746 1.9752 2.3061 5.4695 2.4186 5.4891 0.1767 8e-3 -1.0121 0.2782-1.2455 0.70313-0.6091 1.2843 1.9234 4.734 3.289 5.4366 2.1521 0.41727-0.6751 0.84844-0.7102 1.2288-0.1 0.87039 1.3965 13.242 2.559 13.242 1.2443 0-0.5757 0.40864-1.0467 0.90808-1.0467s0.66524 0.6328 0.36845 1.4062c-0.43285 1.128 0.26867 1.3811 3.545 1.2786 2.5485-0.08 3.2032-0.2857 1.7409-0.5481-3.6442-0.6538-4.8-2.3803-1.2293-1.8363 3.5994 0.5483 5.1826 1.4247 4.5177 2.5006-0.49525 0.8013 1.1472 1.2497 8.8778 2.4235 3.9288 0.5965 4.11 0.5319 2.8309-1.0093-1.2722-1.5329-1.1414-1.5982 1.8963-0.9457 4.2069 0.9038 5.1366 1.4872 3.7426 2.3487-0.71633 0.4427-0.15525 0.9285 1.5405 1.3335 1.467 0.3506 3.4055 0.8566 4.3078 1.1248 1.072 0.3184 1.6406-0.022 1.6406-0.9821 0-1.0077 0.88376-1.4694 2.8125-1.4694 8.5884 0 1.1109-2.8942-14.531-5.6243-5.6719-0.99-13.688-2.4774-17.812-3.3053-15.266-3.0639-26.576-4.3948-38.94-4.5822-13.082-0.1983-14.966-0.5803-14.966-3.0346 0-2.0347 24.472-1.1349 42.188 1.5512 18.074 2.7404 26.963 4.0699 29.062 4.3467 3.1677 0.4178 10.726 1.8331 22.205 4.1583 8.061 1.6327 9.8864 1.7435 11.719 0.7103 1.3785-0.7773 5.5911-1.2288 11.545-1.2376 9.5147-0.014 13.173-0.8595 10.647-2.4603-0.69958-0.4433-3.0375-0.8125-5.1953-0.8204-2.1578-0.01-5.0568-0.4453-6.4422-0.972-1.4523-0.5521-2.9667-0.6118-3.5766-0.1409-4.7183 3.6433-15.228 0.4951-13.118-3.9293l1.5649-3.2817 7.5912 0.404c4.1752 0.2223 8.6459 0.6299 9.935 0.9057 1.2891 0.2759 4.2457 0.7447 6.5702 1.042 2.3246 0.2972 5.6996 1.2356 7.5 2.0854l3.2735 1.545 0.17119 7.9606c0.12127 5.6395-0.18853 8.2408-1.0625 8.9215-0.67852 0.5285-1.3972 1.7941-1.5969 2.8125-0.44629 2.275-3.8708 2.3007-19.261 0.1449-11.328-1.5867-14.219-1.2517-19.082 2.2112-1.5786 1.1242-3.1236 1.7906-3.4332 1.481-0.30958-0.3097-1.0236-0.2056-1.5866 0.231-2.0671 1.6031-5.8151 1.9144-12.181 1.0115-4.4014-0.6243-6.8317-0.6135-7.4783 0.033-1.1076 1.1076-2.4847 1.0938-7.4536-0.075zm-74.692-26.325c-11.205-2.5115-10.792-21.319 0.46875-21.345 16.216-0.037 27.656 4.2685 27.656 10.41 0 4.0855-4.2324 4.791-7.306 1.2177-2.3347-2.7142-18.161-5.8186-20.932-4.1059-2.2052 1.3629-0.34276 4.0676 3.3259 4.8299 5.1148 1.0626 6.3069 2.3136 5.9752 6.27-0.32444 3.8704-1.9371 4.3484-9.188 2.723zm-10.503 131.19c7.0292-8.6002 13.715-15.688 16.558-17.553 11.471-7.525 15.16-14.646 7.07-13.649-6.1874 0.7624-9.4496 3.1891-34.502 25.666-6.365 5.7106-7.6854 6.5389-7.6854 4.8207 0-2.9772 19.293-23.87 26.953-29.188 4.7682-3.3102 4.9348-4.1265 1.0029-4.913-3.0478-0.6095-5.9214 0.8573-12.154 6.2039-1.3636 1.1698-5.3184 4.4472-8.7886 7.2831s-7.8389 6.5176-9.7083 8.1814-4.1372 3.0349-5.0396 3.0469c-2.6858 0.036-2.6514-0.022 5.0743-8.4675 2.2778-2.4901 13.019-12.33 16.564-15.174 5.8098-4.6609-1.6419-5.7353-8.413-1.2131-10.318 6.8909-17.307 12.012-20.491 15.013-2.8302 2.6681-8.3174 6.1124-9.7378 6.1124-0.60076 0 12.345-12.13 20.368-19.084 7.1083-6.1616 7.3316-7.2673 1.6925-8.3825-4.2395-0.8384-7.6361 0.6012-12.423 5.2651-3.2586 3.1752-11.069 8.3244-12.092 7.9723-1.0427-0.3586 4.7261-6.5161 10.271-10.963 5.2859-4.239 4.6734-4.5283-18.704-8.8349-1.2891-0.2375-9.7266-1.9143-18.75-3.7262-19.098-3.8348-23.559-4.7031-24.844-4.8355-0.51563-0.053-3.0469-0.5911-5.625-1.1954-2.5781-0.6042-8.1053-1.5886-12.283-2.1875-10.226-1.466-9.4882-0.6365-11.22-12.622-0.41956-2.9042-0.76373-24.942-1.8082-115.78-0.33495-29.133-0.75712-58.242-0.93813-64.688-2.3701-84.39-2.5458-135.56-0.47022-136.93 1.3295-0.87533 11.275-0.49962 17.164 0.64839 1.4477 0.28225 10.096 1.5149 19.219 2.7392 9.1226 1.2243 22.915 3.244 30.649 4.4882 7.7344 1.2442 17.227 2.7316 21.094 3.3055 3.8672 0.57389 10.617 1.7147 15 2.5352s9.6562 1.6421 11.719 1.8259c4.3392 0.3866 14.861 1.9777 18.281 2.7645 1.2891 0.29653 5.5078 0.95017 9.375 1.4525 11.493 1.493 14.456 1.9277 15.938 2.338 0.77344 0.21424 6.0469 1.049 11.719 1.855 13.133 1.8663 13.788 1.9646 21.094 3.164 15.221 2.499 19.437 3.1447 22.5 3.4463 1.8047 0.17769 5.3906 0.7674 7.9688 1.3105 2.5781 0.54307 10.497 1.8125 17.598 2.821 7.1008 1.0085 13.218 2.0161 13.594 2.2392 0.3758 0.22305 3.6364 0.6893 7.2458 1.0361s8.0391 1.0053 9.8438 1.4633c1.8047 0.45799 6.2344 1.0912 9.8438 1.4072 3.6094 0.31596 9.0938 1.0017 12.188 1.5239 6.4895 1.0954 9.7394 1.6071 13.359 2.1037 1.418 0.19451 8.4844 1.2381 15.703 2.3191s16.5 2.3869 20.625 2.9019c4.125 0.51506 13.406 1.8254 20.625 2.9119s15.023 2.1338 17.344 2.3273c2.3203 0.19352 8.2266 1.0012 13.125 1.7949 23.888 3.8704 25.839 4.519 24.933 8.2913-0.22211 0.92475-0.0371 2.9601 0.41111 4.5229 0.44822 1.5629 0.88275 14.358 0.96561 28.434 0.1758 29.86 0.19787 29.944 5.5214 20.935 2.2176-3.7526 8.408-13.455 13.757-21.56 9.3658-14.194 13.101-24.169 9.0499-24.169-0.87372 0-5.5308 5.3554-7.5422 8.6731-0.86006 1.4186-2.2654 2.802-3.123 3.0742-0.85762 0.27216-3.3248 3.2247-5.4825 6.5613-4.9662 7.6792-7.1154 8.5101-4.2455 1.6414 1.2407-2.9693 2.9883-5.9521 8.673-14.802 0.6593-1.0265 1.9249-3.0716 2.8125-4.5449 0.88757-1.4732 3.3977-5.481 5.5781-8.9062 3.0411-4.7773 3.969-7.1555 3.9844-10.212 0.0305-6.05-1.0054-5.3491-10.737 7.2656-7.5246 9.7533-10.353 13.004-10.628 12.214-0.46963-1.3497 6.38-13.219 9.2125-15.964 7.5419-7.3087 14.308-25.364 10.815-28.858-0.4206-0.42062-7.3239 9.8186-8.4177 12.485-0.41535 1.0127-0.92701 1.3894-1.137 0.83706-0.42795-1.1255 1.6219-5.9917 4.316-10.246 6.2081-9.803 5.968-8.5493 5.835-30.469-0.0672-11.086-0.33468-55.383-0.59426-98.438-0.25957-43.055-0.71454-98.742-1.011-123.75-0.68266-57.579-1.3059-140.6-1.3494-179.77-0.0204-18.333-0.38235-30.234-0.91953-30.234-1.807 0-27.037 31.016-28.461 34.988-0.21804 0.60806-0.67187 0.85271-1.0085 0.54367-1.542-1.4154 25.309-43.921 29.588-46.838 0.71018-0.48413 0.19457-12.079-0.57119-12.845-0.18617-0.18616-2.3759 2.324-4.8661 5.5782s-6.5902 8.0261-9.111 10.604c-2.5209 2.5781-6.4567 7.583-8.7462 11.122s-4.4004 6.1969-4.6908 5.9064c-1.134-1.134 16.462-29.1 25.258-40.144 2.7536-3.4572 3.1313-5.2802 2.6892-12.978-0.21102-3.6744-0.3864-3.9898-1.359-2.4444-2.8254 4.4892-12.544 17.397-16.017 21.273-2.1176 2.3634-6.5347 7.7649-9.8156 12.003-7.0704 9.1338-8.7032 9.3443-2.7852 0.35915 2.2992-3.4908 5.9479-9.3271 8.1083-12.969 2.1604-3.6423 4.6652-7.4392 5.5664-8.4375s2.8621-3.6949 4.3576-5.9925 3.7104-5.2464 4.9219-6.5529 2.2027-2.7408 2.2027-3.1873c0-0.44646 1.0547-2.0652 2.3438-3.5971 1.8695-2.2218 2.3438-3.8142 2.3438-7.8697 0-6.9922-1.54-6.586-6.4927 1.7126-5.0854 8.5209-18.517 26.614-25.11 33.823-8.8146 9.6393-8.5245 8.0584-7.599 41.411 0.82477 29.723 0.58561 36.214-1.3911 37.756-3.0253 2.3595-7.3149 2.8978-15.403 1.9331-10.703-1.2767-11.905-1.2441-15.507 0.42016-1.6656 0.76952-7.0361 2.9502-11.935 4.846-10.008 3.8732-19.068 7.6112-22.354 9.2224l-2.1981 1.0777 2.4107 0.64471c1.3258 0.35459 8.4322 0.89637 15.792 1.204 7.3596 0.30759 15.491 0.79098 18.069 1.0742 7.5401 0.82834 11.492 1.1296 23.906 1.8224 22.32 1.2457 19.546-26.806 21.092 213.28 0.23077 35.836 0.61674 89.625 0.85773 119.53s0.14447 56.273-0.2145 58.594l-0.65267 4.2188-7.0255-0.27439c-3.864-0.15091-9.5568-0.87115-12.651-1.6005s-11.953-2.212-19.688-3.2947c-7.7344-1.0827-19.336-2.7926-25.781-3.7997s-13.406-2.0308-15.469-2.2749-5.8594-0.86536-8.4375-1.3806c-2.5781-0.51527-11.227-1.8116-19.219-2.8806s-17.484-2.3555-21.094-2.8588c-3.6094-0.50325-11.203-1.5635-16.875-2.3562-5.6719-0.79265-12.844-1.7938-15.938-2.2249-15.753-2.1947-25.982-3.7862-26.552-4.131-0.34939-0.21139-3.2074-0.63992-6.3512-0.95228-3.1438-0.31235-9.8938-1.221-15-2.0192-5.1062-0.79821-12.026-1.881-15.378-2.4061-8.1316-1.2741-10.331-1.5804-19.688-2.7421-4.3828-0.54416-11.766-1.5915-16.406-2.3275-4.6406-0.73597-10.125-1.5797-12.188-1.875-2.0625-0.29527-7.3359-1.1316-11.719-1.8586-4.3828-0.72695-9.4453-1.496-11.25-1.7089-1.8047-0.21295-13.828-1.9636-26.719-3.8902-12.891-1.9267-24.703-3.6622-26.25-3.8566-1.5469-0.19446-4.791-0.81758-7.2092-1.3847-2.4182-0.56713-6.426-1.1711-8.9062-1.3422-2.4802-0.17109-10.416-1.213-17.635-2.3154-14.783-2.2576-15.494-2.3563-23.818-3.3077-3.3032-0.37752-7.3378-1.2429-8.9656-1.9231l-2.9597-1.2366-0.19582-23.732c-0.56647-68.652-1.829-145.25-2.4035-145.83-0.14041-0.14041-4.9026-0.49373-10.583-0.78515l-10.327-0.52985 0.24864 12.017c0.13674 6.6091 0.50012 32.477 0.80749 57.485 0.94387 76.794 1.4966 112.46 1.9323 124.69 0.40081 11.25 0.82492 30.026 1.9165 84.844 0.56298 28.274 1.1134 46.757 1.8285 61.406 0.2643 5.4141 0.70217 27.562 0.97303 49.219 0.83088 66.432 3.0505 164.5 3.8108 168.37 0.46396 2.362 7.4184 4.5903 15.861 5.082 1.7331 0.1009 31.114 6.6029 40.781 9.0249 2.3203 0.5814 7.3828 1.589 11.25 2.2393 12.541 2.1089 21.979 4.0151 24.375 4.9228 1.2891 0.4884 4.7629 1.1848 7.7196 1.5478s5.5841 0.9969 5.8386 1.4086c0.2545 0.4118 3.3197 1.0464 6.8116 1.4101 3.4919 0.3638 10.146 1.6449 14.786 2.8468 11.604 3.0057 10.931 3.1796 17.154-4.4337zm285.17-761.92c0.54119-1.0112 3.9446-6.1792 7.563-11.484 3.6185-5.3052 8.6584-12.826 11.2-16.714 5.0859-7.7791 9.3816-12.437 9.3816-10.173 0 2.1653-11.059 18.712-16.447 24.608-0.53799 0.58874-3.2522 4.34-6.0315 8.3361-4.5911 6.6011-8.0859 9.9484-5.6661 5.427zm10.653 592.62c2.3863-4.0411 6.3948-10.098 8.9079-13.46s5.3525-7.4384 6.3097-9.0589c0.95721-1.6204 2.0713-2.9462 2.4757-2.9462s0.73537-0.45 0.73537-1c0-0.5501 1.1136-2.4601 2.4747-4.2447l2.4747-3.2445-0.25849-31.615c-0.14216-17.388-0.37599-36.255-0.51959-41.927-0.14362-5.6719-0.31121-12.633-0.37243-15.469l-0.11132-5.1562-1.9155 2.3438c-1.0535 1.2891-3.2103 3.8203-4.793 5.625-1.5826 1.8047-5.4162 7.1836-8.5192 11.953-3.1029 4.7695-5.9506 8.6719-6.3281 8.6719-0.37753 0-2.0287 2.0917-3.6693 4.6484l-2.9828 4.6483 0.0422 47.892c0.0495 56.082-0.36274 53.197 6.0493 42.339zm-181.65-78.668c-0.1724-19.98-0.36546-37.91-0.42905-39.844-0.10898-3.315-0.28944-3.5163-3.1624-3.5275-2.7112-0.0103-16.397-1.9242-43.828-6.1283-4.8984-0.75075-11.859-1.803-15.469-2.3384-3.6094-0.5354-12.469-1.9634-19.688-3.1734-8.8665-1.4862-13.325-1.8821-13.74-1.2202-1.2975 2.0663-1.6416 18.196-0.99451 46.608l0.67229 29.517 3.2812 0.6343c1.8047 0.3488 9.6094 1.7192 17.344 3.0452 7.7344 1.3261 18.492 3.2819 23.906 4.3463 12.919 2.54 17.269 3.3204 29.062 5.2138 5.4141 0.8693 11.531 1.8911 13.594 2.2708 2.0625 0.3796 5.1032 0.743 6.7572 0.8075l3.0072 0.1174-0.31345-36.328zm-8.4915 30.342c-2.5598-2.5598-3.0251-5.1665-1.2407-6.9509 3.0387-3.0387 7.6275 0.5433 7.1441 5.5765-0.38378 3.996-2.7345 4.5433-5.9034 1.3744zm-16.819-9.0743c-3.5667-0.4136-7.5745-1.0653-8.9062-1.4482-1.3318-0.3829-3.2652-0.8115-4.2964-0.9524s-4.1953-0.7129-7.0312-1.271-6.9838-1.2605-9.2175-1.5609c-2.2337-0.3005-8.6878-1.4793-14.342-2.6196-5.6546-1.1403-10.496-1.7248-10.76-1.2989-5.499 8.8976-12.019-32.544-8.3964-53.366 0.6641-3.817 0.59397-3.9844-1.6698-3.9844-2.4054 0-4.1513-2.7568-2.9633-4.6792 1.3486-2.1821 10.047 2.2402 11.246 5.7174 0.41506 1.204 2.4477 1.6102 10.108 2.0202 9.215 0.49312 31.139 3.6873 47.291 6.8898 4.2361 0.83991 8.3278 1.287 9.0926 0.99356 2.0275-0.77803 2.3324 1.0124 2.9262 17.183 0.29347 7.9922 0.69353 18.88 0.88902 24.195 0.35259 9.5856-0.65369 12.681-3.2233 9.9142-0.67841-0.7304-1.8392-21.173-1.8968-33.406-0.0206-4.3774-0.0718-4.4531-3.0114-4.4531-1.6448 0-5.3362-0.4186-8.2031-0.9302-25.857-4.614-36.629-6.2837-46.278-7.1729l-6.3774-0.58772 0.58135 6.9235c0.31974 3.808 0.82 12.308 1.1117 18.89 0.49696 11.213 0.65526 11.994 2.5148 12.397 1.0914 0.2369 5.9923 1.094 10.891 1.9046s12.703 2.1414 17.344 2.9574c4.6406 0.8159 10.02 1.6797 11.954 1.9194 8.7573 1.0855 23.57 4.586 23.916 5.6515 0.43173 1.3302-2.9377 1.3742-13.292 0.1735zm-5.6901-20.21c-1.9243-4.6056-1.9414-15.354-0.0244-15.354 1.7997 0 6.1185 6.8375 6.7253 10.648 1.1812 7.4162-4.0373 11.082-6.701 4.7068zm-35.403-0.4294c-3.1424-1.8303-4.5102-5.9838-3.7378-11.351 0.93662-6.5081 2.9593-7.0165 6.3769-1.6027 5.2021 8.2406 3.512 16.536-2.6391 12.953zm18.569-2.0085c-2.955-4.2189-2.0012-5.9017 3.254-5.7408 8.5479 0.2619 9.5868 1.7797 3.7427 5.4689-4.5636 2.8809-5.1533 2.9037-6.9967 0.2719zm-9.4528-4.5264c-1.6226-3.1378-1.2353-9.3275 0.58366-9.3275 1.1226 0 3.6597 5.7488 3.6597 8.2926 0 3.6662-2.5598 4.2905-4.2433 1.0349zm508.68-12.843c0.083-5.7212-0.2454-42.419-0.5866-65.391-0.1455-9.7969-0.5453-59.789-0.8885-111.09-0.7348-109.86-1.393-201.46-1.4619-203.44-0.147-4.2253 0.046-119.2 0.2391-142.5 0.058-6.9626-0.1627-89.153-0.2892-107.81-0.089-13.148-0.145-24.961-0.1241-26.25 0.2269-14.053 0.034-60.959-0.3151-76.406-0.6882-30.486-1.0391-197.31-0.4475-212.76 0.29-7.5709 0.4091-19.277 0.2648-26.013l-0.2624-12.247-4.4251 0.62204c-2.4338 0.34212-5.0579 0.66401-5.8313 0.7153-2.9677 0.19682-3.6346 1.6079-2.4908 5.2707 0.7362 2.3577 0.9496 9.646 0.6646 22.692-0.5049 23.111-0.5099 26.76-0.082 60.938 0.184 14.695-0.01 35.254-0.4202 45.687-0.5255 13.206-0.4271 21.038 0.3242 25.781 0.6373 4.0232 1.2482 23.704 1.4923 48.063 0.2272 22.688 0.5626 44.625 0.7453 48.75 0.1826 4.125-0.196 9.8203-0.8412 12.656-1.6278 7.1539-2.3564 28.587-1.0785 31.727 2.3111 5.6778 2.7234 31.899 3.0391 193.27 0.2235 114.3 0.674 173.48 1.3881 182.35 0.6702 8.3243 1.0382 39.891 1.0053 86.25-0.028 40.216 0.1688 94.847 0.4386 121.4 0.2699 26.555 0.539 55.031 0.5982 63.281 0.1501 20.919 0.8841 31.406 2.1986 31.406 0.5934 0 2.113 1.6762 3.3769 3.7248 2.9927 4.8511 3.6901 4.7256 3.7693-0.6779zm-533.5-55.301c3.0775-4.2478 10.242-12.35 15.92-18.004 11.783-11.733 11.531-11.304 6.6396-11.304-3.9772 0-10.261 5.6454-31.237 28.061-9.383 10.027-9.4097 10.089-4.6875 10.879 1.9336 0.32335 3.9375 0.72422 4.4531 0.89063 1.0421 0.33647 1.0533 0.32315 8.9115-10.523zm248.06-35.087c0.74914-1.2121 0.60708-80.55-0.14558-81.302-0.63055-0.63055-9.818 9.4492-18.879 20.713-7.5015 9.3248-10.9 12.384-8.3488 7.5155 0.73576-1.4041 2.119-3.3967 3.0738-4.4279s3.3227-4.1953 5.2618-7.0312c3.2165-4.704 8.794-11.769 14.074-17.828 5.1679-5.93 6.6927-12.175 4.7462-19.438-0.56302-2.1009-3.1591-3.0126-3.1591-1.1093 0 1.26-3.5403 6.061-10.669 14.469-5.9909 7.0655-6.926 8.1033-15.59 17.302-3.1352 3.3286-6.5301 7.3944-7.5442 9.0352-2.4095 3.8987-4.6336 5.8148-4.6336 3.992 0-1.1525 8.5214-13.613 10.157-14.852 0.34629-0.26236 1.872-2.3755 3.3905-4.6958s3.2065-4.6406 3.7511-5.1562c2.1452-2.031 9.1376-10.844 12.38-15.603 1.8817-2.762 4.8544-6.7094 6.606-8.7719s3.6888-4.3702 4.305-5.1283c1.2346-1.519 1.829-61.74 0.64301-65.149-0.60345-1.7347-0.71069-1.7078-1.8688 0.46875-0.67574 1.27-2.848 4.2346-4.8273 6.5881s-3.5987 4.5864-3.5987 4.9619c0 1.4527-21.381 28.863-23.569 30.215-0.52682 0.32559-1.6922 1.7996-2.5898 3.2755-0.89757 1.4759-5.7681 7.4416-10.823 13.257-10.669 12.273-10.957 12.609-20.217 23.57-3.8607 4.5697-8.2027 9.9486-9.6489 11.953s-3.057 3.6445-3.5795 3.6445c-1.4552 0 11.618-17.333 15.508-20.562 0.81536-0.67668 1.4825-1.683 1.4825-2.2361s1.0208-2.0836 2.2684-3.4008c1.2476-1.3173 4.0953-4.793 6.3281-7.7239 4.5175-5.9298 18.73-23.47 19.61-24.202 0.31007-0.25781 3.7914-4.8984 7.7363-10.312 11.89-16.318 12.599-17.257 14.853-19.654 1.1946-1.2705 2.594-3.0286 3.1096-3.9067 0.51563-0.87816 2.9873-4.605 5.4926-8.2819s4.5708-7.6142 4.5901-8.7495c0.74123-43.718-1.4311-99.56-3.7433-96.226-0.87242 1.258-3.3018 4.1856-5.3987 6.5059s-7.1444 8.3749-11.217 13.455c-9.8971 12.346-10.695 13.25-22.068 25.006-5.4141 5.5965-11.502 12.399-13.528 15.117-2.0264 2.7178-3.8382 4.48-4.0262 3.9161-0.42998-1.29 5.1544-9.658 6.8895-10.324 0.7094-0.27223 1.2898-1.0607 1.2898-1.7522s2.0276-3.705 4.5057-6.6966c12.223-14.756 18.272-22.486 18.928-24.189 0.3972-1.0312 3.6312-5.25 7.1866-9.375s7.718-9.1873 9.2502-11.25c1.5322-2.0623 4.5788-5.9811 6.7702-8.7084 3.5604-4.431 3.9812-5.4786 3.9548-9.8441l-0.0296-4.8854-2.4083 2.8125c-1.3246 1.5469-11.248 11.883-22.052 22.969s-20.289 20.93-21.078 21.875c-0.7885 0.94532-1.6744 1.4781-1.9685 1.1839-1.3298-1.3298 9.2854-14.599 31.484-39.354 15.022-16.753 15.865-18.11 15.908-25.637l0.0362-6.2738-3.177 3.7128c-1.7474 2.042-3.1929 4.0357-3.2122 4.4304-0.0639 1.3042-11.18 14.237-14.29 16.626-3.7507 2.8808-11.428 10.66-14.572 14.766-2.2437 2.9299-3.9857 3.9157-3.9857 2.2555 0-1.1767 11.912-15.809 17.542-21.549 11.286-11.505 21.861-25.323 21.371-27.925-0.18288-0.97147-0.36479-3.6383-0.40424-5.9264l-0.0717-4.1601-6.3798 6.9726c-3.5089 3.8349-7.9049 8.6587-9.7688 10.719-10.957 12.114-4.1656 1.0835 8.079-13.122l8.081-9.375-0.16856-12.825-0.16855-12.825-4.2902-0.52158c-11.418-1.3881-41.959-3.7366-59.134-4.5471-5.4141-0.25552-13.641-0.77688-18.281-1.1586-6.9887-0.57485-9.0814-0.41688-12.188 0.92-5.4683 2.3536-16.406 6.0719-16.406 5.5773 0-0.23356-1.6791 0.63532-3.7314 1.9308-2.0523 1.2955-4.1126 2.3555-4.5785 2.3555s-4.7985 1.6366-9.628 3.637c-4.8295 2.0003-11.945 4.6158-15.812 5.8121-3.8672 1.1963-7.6641 2.6817-8.4375 3.3009-1.692 1.3546-6.916 3.5774-14.531 6.1829-3.0938 1.0585-7.1016 2.6877-8.9062 3.6204s-6.0234 2.8263-9.375 4.2079-9.2578 3.8785-13.125 5.5486-9.4519 4.0185-12.41 5.2186-5.2781 2.2831-5.1547 2.4066c0.54443 0.54444 16.124 2.1804 25.534 2.6813 14.182 0.75494 20.811 1.3965 25.903 2.5073l4.3402 0.94675 0.66252 4.8555c0.67435 4.9421 0.86934 19.743 0.62592 47.512-0.0746 8.5078-0.0823 20.742-0.0172 27.188 0.0652 6.4453 0.0675 12.429 6e-3 13.296-0.13652 1.9017-3.5069 3.1553-5.0801 1.8895-1.5985-1.2862-5.6215-1.9945-14.252-2.5094-4.125-0.24607-11.297-0.67446-15.938-0.95198-4.6406-0.27752-10.969-0.91688-14.062-1.4208s-16.383-1.5844-29.531-2.401c-36.939-2.2942-33.44 1.6926-33.891-38.605-0.21019-18.772-0.66628-29.296-1.2696-29.297-1.9079-2e-3 -14.216 4.8247-25.96 10.18-2.4209 1.1039-4.8524 2.007-5.4033 2.007s-1.7342 0.3973-2.6296 0.8829-4.3902 2.189-7.7664 3.7853l-6.1385 2.9024-0.24453 22.699c-0.60056 55.748 2.7177 51.36-35.291 46.664-4.125-0.50963-15.094-1.3798-24.375-1.9337s-18.457-1.2563-20.391-1.5609l-3.5156-0.55382-0.18006 8.3229c-0.099 4.5776-0.13796 9.3776-0.0865 10.667 0.0515 1.2891 0.35469 31.875 0.67384 67.969 0.66658 75.385 0.74078 76.967 3.6426 77.664 1.6528 0.39684 14.517 2.3733 37.2 5.7154 1.2891 0.18993 8.8828 1.4212 16.875 2.7361s18.117 2.8574 22.5 3.4278c4.3828 0.57036 8.8125 1.1871 9.8438 1.3705 2.2968 0.40847 25.933 4.093 30.469 4.7496 1.8047 0.26126 7.9219 1.1415 13.594 1.9562 5.6719 0.81462 11.282 1.8593 12.466 2.3214 1.1844 0.46216 3.613 0.84029 5.3968 0.84029s7.3538 0.61655 12.378 1.3701 10.611 1.5681 12.416 1.8101c3.9016 0.52317 15.117 2.2224 22.969 3.4798 3.0938 0.49547 8.5781 1.2778 12.188 1.7385 3.6094 0.4607 8.4609 1.2322 10.781 1.7144 2.3203 0.48223 8.0156 1.384 12.656 2.004 7.8853 1.0535 18.029 2.5206 43.125 6.2375 5.6719 0.84003 11.789 1.6993 13.594 1.9094 1.8047 0.21013 5.3906 0.77809 7.9688 1.2622 2.5781 0.48406 8.499 1.3471 13.157 1.9178 4.6585 0.57075 9.2991 1.1791 10.312 1.3519s5.0066 0.62131 8.8738 0.9967c3.8672 0.37537 7.5401 1.0901 8.1621 1.5882 0.62194 0.49813 1.5045 0.67475 1.9612 0.39249 0.45671-0.28225 5.4322 0.32153 11.057 1.3417 5.6245 1.0202 14.445 2.2703 19.601 2.778s11.386 1.388 13.845 1.9563c2.4583 0.56827 7.5208 1.354 11.25 1.746 3.7292 0.39202 7.0719 0.77003 7.4282 0.84005 0.35629 0.07 0.95145-0.36402 1.3226-0.96451zm-73.635-41.799c0.0297-0.38671 1.0859-2.1797 2.3471-3.9844s3.403-4.9688 4.7596-7.0312c1.3566-2.0625 3.4433-4.8047 4.6372-6.0938 5.2092-5.6246 12.239-14.107 17.019-20.536 2.8389-3.8182 6.3713-8.2479 7.8499-9.8438s5.7514-6.9272 9.4952-11.848c8.2733-10.873 16.791-20.758 17.38-20.169 0.23823 0.23824-3.1812 5.3108-7.5986 11.272-4.4175 5.9616-9.636 13.399-11.597 16.527-3.6457 5.8172-18.578 23.76-23.39 28.106-5.5653 5.0263-19.081 21.657-19.081 23.478 0 0.45358-0.42188 0.8247-0.9375 0.8247-0.51563 0-0.91318-0.31641-0.88345-0.70313zm-144.9-2.0749c-15.263-6.3834-9.7312-32.777 6.6508-31.734 16.576 1.0555 21.466 16.506 9.3049 29.401-3.188 3.3803-10.793 4.4923-15.956 2.3332zm4.2188-11.576c0-4.4605 3.0879-7.4904 7.1504-7.0162 4.6756 0.54585 4.3215-2.3602-0.46226-3.7934-5.6561-1.6946-7.3296-1.3489-9.9216 2.0495-2.7472 3.6017-3.0839 7.6706-0.83991 10.15 2.4342 2.6898 4.0734 2.1304 4.0734-1.39zm133.15-0.41115c0.0125-0.38671 1.4852-2.6016 3.2728-4.9219 1.7875-2.3203 3.9762-5.2734 4.8638-6.5625 0.88755-1.2891 4.4881-5.7188 8.0012-9.8438s7.6118-8.9766 9.1082-10.781 6.4574-7.7371 11.024-13.183c9.7373-11.611 9.5169-11.346 14.076-16.929 1.9453-2.3818 4.375-5.3349 5.3992-6.5625s3.7248-4.7633 6.0011-7.857c2.2764-3.0938 5.2352-6.9352 6.5752-8.5366s3.2801-4.0968 4.3114-5.5454c3.7094-5.2107 7.247-7.077 4.0169-2.1192-0.76636 1.1762-3.2027 5.5136-5.4141 9.6386s-5.122 8.826-6.468 10.447c-1.346 1.6207-5.5008 6.6832-9.233 11.25-17.707 21.668-22.324 27.141-23.817 28.233-4.0455 2.9609-16.075 15.633-23.132 24.367-7.4568 9.2292-8.6366 10.453-8.5866 8.9062zm-117.68-66.41c-3.0938-0.64309-8.5781-1.4458-12.188-1.7839-3.6094-0.33804-11.203-1.2264-16.875-1.9742-10.589-1.396-22.545-2.8162-33.275-3.9526-5.8249-0.61687-6.1559-0.78912-7.6599-3.9865-2.0146-4.2829-7.9763-8.2149-14.544-9.5926-7.2422-1.5191-9.0922-4.1994-7.9455-11.512 0.46093-2.9393 0.64509-6.0821 0.40925-6.984-0.76748-2.9349 17.583-2.9848 28.521-0.0775 7.9864 2.1227 2.8831 5.6742-7.3463 5.1126-5.8727-0.32244-6.629-0.19939-5.0418 0.82026 1.0271 0.65979 3.1687 2.5231 4.7591 4.1406 2.5506 2.5942 3.0064 2.76 3.865 1.4062 1.5974-2.5185 34.975-1.8429 58.415 1.1823 10.055 1.2977 20.812 2.6031 23.906 2.9007 5.6495 0.5436 13.584 3.1476 13.59 4.4603 2e-3 0.38672 1.8771 0.70313 4.1669 0.70313s4.4242 0.42187 4.7428 0.9375c1.3276 2.1481 6.2736 0.94518 9.5388-2.32 4.0577-4.0577 3.3524-5.3812-2.6966-5.0602-5.3418 0.28352-7.2474-1.3787-5.0405-4.3968 1.3574-1.8564 1.197-1.8663 23.042 1.4223 13.334 2.0073 15.539 3.1725 13.086 6.9151-0.73294 1.1183-1.5513 4.7321-1.8186 8.0306-0.70864 8.7453-0.29172 8.6723-29.368 5.1427-6.7881-0.82398-10.675 0.2788-15.03 4.2646-5.6365 5.1585-16.849 6.7708-29.213 4.2007zm20.479-17.28c-0.43507-0.41635-6.2754-1.4552-12.979-2.3085-6.7031-0.85334-13.664-1.9292-15.469-2.3909s-7.0781-1.1319-11.719-1.4894c-4.6406-0.35749-9.2812-0.7828-10.312-0.94515-3.7549-0.59112-29.759-0.31735-30.797 0.32423-1.6225 1.0028 13.322 3.7474 24.234 4.4506 8.9173 0.57468 19.69 1.6735 32.812 3.3468 22.526 2.8725 28.028 2.6482 24.229-0.98775zm441.37-3.8046c0.039-4.8581-0.193-24.442-0.517-43.52-0.746-43.943-0.7771-89.836-0.088-129.38 0.2967-17.016 0.6845-39.797 0.8619-50.625 0.1773-10.828 0.5752-23.273 0.8842-27.656 0.3089-4.3828 0.8011-27.375 1.0936-51.094 0.5173-41.942 0.7037-50.649 1.9662-91.875 0.3316-10.828 0.6012-20.32 0.5991-21.094-0.042-14.964-0.5798-27.188-1.1967-27.188-0.4319 0-0.8141-2.0039-0.8492-4.4531-0.036-2.4492-0.2716-7.8281-0.5254-11.953-0.2537-4.125-0.7329-14.155-1.0649-22.288-0.6588-16.141-0.7343-16.341-5.5129-14.613-3.7369 1.3512-4.0766 2.518-1.4008 4.8091 2.3482 2.0106 2.4066 4.5908 0.1359 6.0088-3.3398 2.0858-4.1424 35.363-2.2345 92.646 0.8575 25.742 0.9062 55.674 0.1733 106.41-0.019 1.2891-0.039 6.7475-0.046 12.13-0.01 5.3824-0.2231 10.128-0.4815 10.546-0.2583 0.41795-0.6328 8.0376-0.8322 16.933-0.3602 16.061-0.9823 31.439-1.9629 48.516-1.1402 19.857-1.0989 31.593 0.1353 38.438 1.6762 9.2954 2.2544 18.443 2.8738 45.464 0.2836 12.373 0.8514 22.919 1.2617 23.438 0.4105 0.51806 0.8887 6.4263 1.063 13.129 0.3663 14.094 0.3641 15.264-0.094 52.031-0.3418 27.466-0.3292 27.684 1.833 31.702 2.9606 5.5008 3.8384 4.0552 3.9241-6.4624zm-600.13-86.653c-0.52592-1.3833-0.86376-8.8504-0.75622-16.715 0.20339-14.875-0.77966-172.55-1.623-260.31-0.38209-39.765-0.7974-52.599-1.873-57.881-1.015-4.9846-1.1397-7.8687-0.46946-10.859 2.4339-10.86 0.84202-102.95-1.7964-103.93-0.95645-0.35381-7.7906-0.88914-15.187-1.1896-7.3964-0.30047-18.932-0.95684-25.636-1.4586-6.7031-0.50174-19.57-1.1283-28.594-1.3924-9.0234-0.26408-18.305-0.68514-20.625-0.93569s-9.4922-0.63737-15.938-0.85961c-15.407-0.53121-32.73-1.3715-40.312-1.9555-3.3516-0.25811-11.367-0.70073-17.812-0.9836l-11.719-0.5143-24.375 23.914c-13.406 13.153-24.797 23.917-25.312 23.92-0.51563 3e-3 0.32812-1.1581 1.875-2.5808 1.5469-1.4227 4.0507-4.258 5.5642-6.3006 3.3498-4.5212 14.499-16.273 27.717-29.215 5.4141-5.301 9.6328-9.6777 9.375-9.7258-0.25781-0.0482-3.1451-0.27743-6.4161-0.50946l-5.9474-0.42185-4.3651 4.8779c-2.4008 2.6829-5.1818 5.5451-6.1799 6.3604-0.99814 0.81537-2.8966 2.6805-4.2188 4.1448-6.0984 6.7538-19.645 19.915-23.029 22.373-2.0625 1.4984-7.5469 6.4211-12.188 10.939-10.37 10.097-12.757 11.673-6.5625 4.3318 2.5781-3.055 5.3203-6.3755 6.0938-7.3789 3.1308-4.0614 11.602-13.087 15.292-16.291 2.1598-1.8758 7.7238-7.105 12.364-11.62 4.6406-4.5154 10.758-10.328 13.594-12.916l5.1562-4.7065-3.2812-0.16792c-1.8047-0.0923-3.9141-0.23148-4.6875-0.30916-3.5902-0.36059-7.2206 2.3199-17.51 12.928-6.0963 6.2854-12.561 12.632-14.365 14.104s-10.875 9.9715-20.156 18.888-17.249 16.567-17.705 17c-3.2709 3.1041 2.325-4.1629 6.9736-9.056 3.1841-3.3516 6.9012-7.57 8.2604-9.3744 1.3591-1.8043 3.7367-4.5601 5.2836-6.1239s6.8632-7.0484 11.814-12.188 12.294-12.298 16.319-15.907c12.768-11.452 12.584-10.902 3.7027-11.041-5.9282-0.0931-6.3974 0.0576-8.2777 2.6589-1.0963 1.5167-4.9468 5.8564-8.5567 9.6438-3.6098 3.7875-6.7267 7.3734-6.9263 7.9688s-1.0433 1.7683-1.875 2.6065c-0.83166 0.83825-3.2837 3.6032-5.4489 6.1444-3.4091 4.001-8.9143 9.4998-22.592 22.566-1.7543 1.6758-3.4036 3.0469-3.6652 3.0469-0.48304 0-3.3168 2.696-22.171 21.094-5.8127 5.6719-11.279 10.892-12.148 11.599-2.153 1.7536-2.059-0.26989 0.1125-2.422 0.93074-0.92243 3.0756-3.4701 4.7663-5.6615s3.6714-3.9844 4.4015-3.9844 1.3275-0.53423 1.3275-1.1872c0-0.65294 10.135-11.516 22.522-24.141 43.291-44.121 48.335-49.44 47.588-50.187-0.29392-0.29392-12.498-1.1178-27.119-1.8308-14.622-0.71304-32.069-1.5926-38.772-1.9546-6.7031-0.36198-16.331-0.65284-21.396-0.64636l-9.2087 0.0118-12.829 12.546c-7.0562 6.9001-13.881 13.352-15.166 14.337-4.5574 3.4931-9.0024 7.4522-17.337 15.442-9.0656 8.6902-16.624 15.111-17.79 15.111-0.39688 0-3.3066 2.6367-6.4659 5.8594-7.0196 7.1602-25.984 24.772-28.793 26.74-5.9827 4.1904 4.8826-8.1549 20.696-23.515 5.4091-5.2541 19.313-18.834 30.897-30.178 21.181-20.741 28.284-27.532 35.205-33.66l3.75-3.3202-4.5259-0.0254c-4.4269-0.0248-4.714 0.1552-13.125 8.2276-17.106 16.417-26.74 25.15-34.85 31.591-4.545 3.6094-10.522 8.632-13.282 11.161-14.17 12.985-2.9085 0.32438 21.171-23.8 14.998-15.026 27.269-27.505 27.269-27.731 0-3.5215-16.869 6.3984-22.578 13.277-0.71544 0.86204-2.9945 2.6241-5.0646 3.9158-4.7999 2.9949-13.553 9.8162-19.399 15.116-2.5027 2.2694-4.8439 3.8326-5.2027 3.4738-0.71089-0.71089 29.859-31.247 33.994-33.956 3.0832-2.0202 1.5481-3.0004-4.8687-3.1088-3.6474-0.0616-4.5589 0.52659-14.062 9.0747-16.297 14.658-30.607 24.915-21.881 15.684 2.3203-2.4549 5.8752-5.986 7.8996-7.847 10.929-10.046 17.779-16.924 17.316-17.387-1.0781-1.0781-16.206-0.83772-16.573 0.26331-0.19864 0.59592-0.77278 1.0835-1.2759 1.0835s-0.67199-0.39273-0.37533-0.87272c0.94809-1.534-0.64422-1.7746-15.919-2.4048-8.2384-0.33991-21.94-1.0344-30.448-1.5434-19.585-1.1716-19.695-1.1719-20.796-0.0711-0.54305 0.54305-0.88194 8.1637-0.82755 18.609 0.12464 23.934 0.97343 80.595 1.4236 95.033 0.4568 14.651 1.5618 62.735 1.9281 83.906 0.15169 8.7656 0.51526 25.008 0.80793 36.094 0.76747 29.071 1.4764 72.048 1.9949 120.94 0.50642 47.752 1.3112 82.184 1.9755 84.526 0.52107 1.8374 4.6173 2.4975 19.587 3.156 5.6719 0.24952 14.531 0.8609 19.688 1.3586s25.157 2.0359 44.447 3.4182l35.072 2.5132 4.2544-4.5956c11.865-12.817 24.648-25.997 24.006-24.752-1.3034 2.5269-7.2346 9.6731-15.717 18.936-8.9969 9.8253-9.322 11.064-2.9037 11.064 3.6907 0 4.7992-0.53745 9.0853-4.4049 6.0349-5.4455 21.789-21.328 25.272-25.479 1.418-1.6896 2.5781-2.8119 2.5781-2.494 0 2.3457-5.2415 9.3384-14.92 19.904-12.718 13.884-12.425 13.412-8.3185 13.412 3.0545 0 32.46-28.112 40.987-39.184 3.2837-4.2637 4.8028-4.7392 2.7148-0.84982-1.6708 3.1123-5.9024 8.2846-17.651 21.575-5.4141 6.1245-11.238 12.769-12.943 14.766l-3.0989 3.6305 2.554 0.64101c1.9724 0.49506 2.9257 0.18191 4.1867-1.3753 0.89801-1.109 2.3592-2.0163 3.2471-2.0163 1.5531 0 13.114-11.223 25.628-24.88 3.3374-3.6421 6.1633-6.024 6.3945-5.3897 0.56847 1.5599-0.30705 2.8977-6.4002 9.7799-2.9015 3.2772-6.9853 8.0679-9.0751 10.646s-5.51 6.5859-7.6005 8.9062c-4.5991 5.1048-4.6237 5.2895-0.78328 5.8831 4.2509 0.65702 9.4907-3.3863 18.648-14.39 2.6354-3.1668 8.4623-9.4036 12.949-13.86 4.4864-4.4561 11.773-12.321 16.192-17.477s10.857-12.328 14.306-15.938l6.271-6.5625-5.6523 7.5c-3.1088 4.125-7.8915 10.277-10.628 13.672s-6.2416 7.8199-7.7885 9.834c-1.5469 2.0142-6.3984 7.6808-10.781 12.593-23.877 26.759-22.619 24.91-17.563 25.81 1.7946 0.31938 14.827 1.3031 49.906 3.767 4.125 0.28973 11.086 0.92074 15.469 1.4022s10.368 0.87894 13.3 0.88317l5.3312 8e-3 5.9188-6.7268c11.709-13.308 17.138-19.184 25.057-27.124 9.532-9.5562 25.696-26.774 27.627-29.429 0.74951-1.0304 1.5657-1.6632 1.8137-1.4062 0.24801 0.25701-3.6198 5.4012-8.5952 11.432-4.9754 6.0304-11.575 14.468-14.667 18.75-3.0914 4.2823-8.5862 11.161-12.211 15.286-12.182 13.865-12.564 14.609-6.9717 13.586 3.025-0.55318 5.25-2.1314 11.016-7.8138 3.9737-3.9163 7.9034-7.661 8.7327-8.3216 0.82928-0.66054 4.2926-4.576 7.6963-8.701 7.0892-8.5916 13.529-15.08 14.25-14.358 0.51352 0.51352-4.6108 8.4037-8.8342 13.602-1.3378 1.6467-3.3516 4.1779-4.4751 5.625-6.7045 8.6349-10.091 12.751-15.647 19.02-3.4191 3.8575-6.2166 7.33-6.2166 7.7165 0 1.2943 4.9498 1.9721 6.4732 0.88641 0.82254-0.58615 3.0238-1.895 4.8916-2.9086s6.3577-4.4985 9.9775-7.7442 7.6976-6.8331 9.0619-7.9719 4.6594-4.6783 7.3226-7.8655c6.4273-7.692 7.7537-5.7831 1.441 2.0736-9.5669 11.907-12.309 15.013-17.452 19.766-7.0221 6.4906-7.0122 6.3776-0.56063 6.3776 6.6864 0 7.73-0.60656 17.196-9.9947 4.3353-4.2998 8.2244-7.8178 8.6425-7.8178 1.6964 0-0.77603 3.6447-6.8386 10.081-8.9033 9.4521-9.7047 8.8825 14.818 10.533 7.6634 0.51564 16.465 1.1515 19.558 1.413 17.692 1.4954 29.825 2.4373 35.625 2.7658 3.6094 0.20443 11.836 0.81278 18.281 1.3519 6.4453 0.5391 19.102 1.4235 28.125 1.9652 9.0234 0.54179 17.672 1.3338 19.219 1.76 3.456 0.95232 4.6368-0.523 3.2782-4.0962zm-240-25.358c-13.35-7.4416-10.108-28.54 4.3861-28.54 17.072 0 21.742 24.275 5.646 29.349-6.0981 1.9223-4.9707 2.0131-10.032-0.8082zm3-7.1654c-3.1579-3.1579 0.0706-8.9068 5.4886-9.7732 2.0344-0.32531 3.6924-0.85396 3.6845-1.1748-0.0443-1.7963-2.0244-3.1274-5.3073-3.5678-7.0284-0.9427-12.28 10.243-6.6572 14.181 2.4558 1.7201 4.4114 1.9544 2.7914 0.33441zm-41.438-23.285c0-1.2095 11.475-15.052 12.024-14.504 0.51692 0.51692-10.395 15.405-11.32 15.446-0.38671 0.017-0.70312-0.40673-0.70312-0.94161zm44.009-80.009c-0.2283-0.22276-4.6338-0.61616-9.7901-0.87424-9.0437-0.45265-13.774-1.0891-30.106-4.0503-4.1831-0.75848-10.211-1.5063-13.396-1.6618-4.4698-0.21828-6.2159-0.73946-7.656-2.2852-2.8401-3.0485-7.347-5.0606-9.9001-4.4198-1.2441 0.31225-3.1032 0.11751-4.1314-0.43276-1.2967-0.69399-2.9307-0.70743-5.3339-0.0439-5.9147 1.6331-7.7507-0.36187-7.4962-8.1452 0.11373-3.4785-0.14765-8.1232-0.58085-10.321-1.1598-5.8851 2.3536-7.2075 17.342-6.5274 12.803 0.58089 16.132 1.7575 16.534 5.8433l0.27626 2.806 17.536 2e-3c26.148 4e-3 53.474 1.6453 69.099 4.1518 14.253 2.2866 15.469 1.9322 15.469-4.5106 0-7.4334 1.7669-7.9332 20.941-5.9231 21.344 2.2375 22.008 2.6884 21.579 14.651-0.36941 10.314-0.27849 10.255-15.527 10.131-14.448-0.11748-19.952 1.1543-23.033 5.3215-1.3968 1.8892-3.3896 3.0217-6.7252 3.822-2.6072 0.62544-4.9338 1.4503-5.1703 1.833-0.44901 0.72651-39.205 1.3426-39.93 0.63474zm41.429-15.73c3.5589-1.0663 4.9259-2.6641 2.2792-2.6641-0.73987 0-2.5328-0.48556-3.9844-1.079-1.4515-0.59346-4.2685-1.1724-6.2599-1.2866s-3.9426-0.72836-4.3359-1.3648c-0.49184-0.7958-0.90954-0.84274-1.3375-0.15032-0.76448 1.237-6.2627 0.27694-7.5808-1.3236-1.2273-1.4903-8.1628-2.3174-10.142-1.2096-2.137 1.1959-8.0351 1.5691-8.3814 0.53024-0.29485-0.88452-1.4477-0.96902-10.07-0.73805-8.7584 0.23462-24.036-0.79583-26.675-1.7992-3.6512-1.3882-12.682-1.2342-12.774 0.21786-0.0593 0.9375-0.16858 0.9375-0.54687 0-0.61788-1.5313-2.0622-1.4723-5.2996 0.21627-1.4516 0.75712-3.7475 1.525-5.102 1.7064-3.4917 0.4676-3.8594 2.5305-0.45096 2.5305 1.5547 0 3.4812 0.81317 4.4422 1.875 1.7493 1.933 6.0938 2.6014 6.0938 0.9375 0-0.51563-0.71719-0.9375-1.5938-0.9375-1.1703 0-1.3165-0.27723-0.55043-1.0433 1.2248-1.2248 3.0817-0.33327 3.0817 1.4796 0 0.80159 0.68512 1.084 1.875 0.77283 2.1164-0.55344 2.4592-1.7546 0.70312-2.4632-0.72154-0.29115-0.56267-0.5013 0.41342-0.54687 0.87192-0.0407 1.846 0.34785 2.1647 0.86348 0.86693 1.4027 5.8138 1.1304 8.9528-0.49283 1.5213-0.78667 2.8187-1.2086 2.8831-0.9375 0.0644 0.27105 0.16992 0.95477 0.23437 1.5194 0.1647 1.4427 8.6769 1.9515 13.032 0.77893 2.4924-0.67112 4.0002-0.67563 4.797-0.0143 1.7444 1.4478 11.306 2.3399 13.274 1.2385 1.2373-0.69243 2.0592-0.58809 3.0323 0.38497 0.78084 0.78083 2.9479 1.2799 5.2213 1.2024 2.1375-0.0729 6.4177 0.13034 9.5114 0.4515 6.6688 0.69228 18.599 2.1333 19.11 2.3083 0.19799 0.0678 1.991-0.36543 3.9844-0.96268zm25.656-7.6941c8.1359-3.4193 7.8477-4.8671-1.1288-5.6689-4.0198-0.35908-8.1525-0.85737-9.1837-1.1073-2.8874-0.69982-2.99 7.4369-0.11173 8.8649 2.337 1.1595 3.0225 1.0221 10.424-2.0887zm-133.83-5.8406c6.2044-0.94543 2.8345-2.2543-5.804-2.2543-8.3026 0-10.737 0.69888-9.4853 2.7236 0.49501 0.80093 8.5828 0.55271 15.289-0.46925zm106.16-116c-0.26266-0.27167-8.0674-0.75782-17.344-1.0803-9.2764-0.32251-19.187-0.7492-22.022-0.94821-2.8359-0.19899-15.703-0.84984-28.594-1.4463-33.777-1.563-37.086-1.9245-38.338-4.189-0.57021-1.0312-1.3014-2.0859-1.6248-2.3438-2.7396-2.1837-3.4372-87.333-0.75075-91.635 1.256-2.0112 11.262-3.6814 15.993-2.6696 1.2214 0.26118 7.4941 0.7163 13.939 1.0114s14.883 0.73885 18.75 0.98619c9.6005 0.61404 48.129 2.2792 59.062 2.5527 7.5654 0.18921 9.4708 0.56815 12.656 2.517 4.9098 3.0038 5.0671 3.3108 4.0384 7.8781-0.89853 3.9895-0.32954 55.949 0.73557 67.172 0.69603 7.3338-2.3497 19.076-5.3667 20.691-2.0788 1.1125-10.424 2.2395-11.135 1.5038zm6.9001-8.1573c1.6012-1.6324 2.3895-80.654 0.82876-83.075-0.42109-0.65293-5.6076-1.328-13.345-1.7371-6.9609-0.368-14.133-0.80599-15.938-0.97332s-7.5-0.53637-12.656-0.82009c-33.021-1.817-47.264-2.6548-57.188-3.3638-14.596-1.0429-14.044-3.1452-12.44 47.337 0.37686 11.859 0.7478 25.419 0.8243 30.134l0.1391 8.5711 7.6132 0.56997c4.1872 0.31348 8.246 0.47923 9.0194 0.36833s5.4141 0.10856 10.312 0.4877c16.72 1.2941 22.041 1.5653 42.188 2.1502 11.086 0.32186 20.331 0.74741 20.544 0.94568 0.54595 0.50818 19.568-0.055 20.098-0.59506zm-10.131-7.3432c-0.77064-2.4281 0.25625-4.6391 2.4828-5.3458 2.75-0.87281 4.102 1.3028 3.677 5.9168-0.17784 1.9306-5.5231 1.435-6.1598-0.57105zm-34.261-4.5109c-4.6619-0.36375-28.669-3.0972-34.031-3.8749-16.639-2.413-1.4851-3.0652 20.267-0.87236 9.3752 0.94516 22.003 1.953 28.061 2.2398 10.471 0.49553 13.553 1.3669 8.9062 2.5181-2.0551 0.50913-16.627 0.50246-23.203-0.0106zm31.444-4.293c-0.61856-1.948-1.7127-29.639-1.5342-38.827 0.21387-11.006 1.12-10.751-37.879-10.672-4.125 8e-3 -11.508-0.39566-16.406-0.89793-4.8984-0.50229-11.624-1.1535-14.946-1.4472-3.3219-0.29369-6.3582-0.73076-6.7473-0.97127-0.38914-0.24051-0.72589 9.0436-0.74834 20.631-0.025 12.948 0.31719 21.29 0.88794 21.643 1.6363 1.0113 0.99553 4.0244-1.2305 5.7859-1.1876 0.93977-2.44 2.447-2.7831 3.3493-0.69194 1.8197-3.9634 2.2209-4.9601 0.60827-0.65148-1.0541-1.0703-13.394-1.3331-39.28-0.23278-22.929-0.0924-23.071 21.831-22.119 8.3524 0.36277 21.725 0.87386 29.717 1.1358s18.328 0.91297 22.969 1.4468c4.6406 0.53385 9.9952 1.0456 11.899 1.1371 4.8005 0.23088 4.6872-0.0987 5.1035 14.839 0.79874 28.658-1.2399 51.826-3.8398 43.639zm-48.711-22.5c-1.7512-8.6393-1.4722-12.891 0.84611-12.891 2.9201 0 6.1778 11.194 4.0243 13.828-1.5758 1.9274-4.3998 1.3838-4.8704-0.9375zm29.983-2.6348c-2.1339-4.6057-2.2534-8.7996-0.23152-8.1256 3.6499 1.2166 7.2739 12.87 4.0024 12.87-0.97532 0-2.4078-1.8023-3.7708-4.7442zm-16.421 2.1565c-5.8738-4.7563-3.3166-11.02 3.855-9.4421 8.805 1.9368 10.226 5.0506 3.5279 7.7306-2.0227 0.80933-3.6776 1.8968-3.6776 2.4166 0 1.4148-1.4212 1.1444-3.7052-0.70512zm-25.708-1.6617c-1.1684-3.0448-0.6364-8.9154 0.85996-9.4896 2.1748-0.83455 2.6926 0.21669 2.7342 5.5508 0.0388 4.9785-2.2378 7.4734-3.5942 3.9388zm-30.899-42.313c-1.1439-1.1439-0.64482-4.1137 0.78344-4.6618 1.4773-0.56688 5.3262 3.3123 4.5434 4.579-0.54059 0.87469-4.4738 0.93584-5.3268 0.0828zm96.465-53.906c10.143-10.934 30.41-29.248 30.41-27.479 0 0.82576-13.68 14.022-29.663 28.615-3.2167 2.9368-3.7589 2.1117-0.74638-1.1358zm-236.09-22.813c2.6142-3.7061 16.939-17.838 17.506-17.271 0.43149 0.43149-12.908 14.482-17.287 18.208l-2.2034 1.875 1.9839-2.8125zm595.09 436.41c0.31867-0.51563-0.23758-0.9375-1.2361-0.9375-3.324 0-4.2538-2.2802-2.7588-6.7654 1.6992-5.0977 5.1932-5.7383 6.5634-1.2034 0.46739 1.5469 1.3044 3.7473 1.8601 4.8899 0.76862 1.5805 0.69617 2.4579-0.30293 3.6681-1.1358 1.3759-1.1233 1.5277 0.0931 1.1243 1.8378-0.60945 2.1592-80.15 0.32675-80.856-0.59372-0.22863-8.1875-0.67503-16.875-0.99201-8.6876-0.31698-17.272-0.84081-19.077-1.1641-1.8047-0.32326-4.3359-0.65464-5.625-0.7364-1.2891-0.0817-7.2304-0.48388-13.203-0.89362l-10.859-0.74495-6.3724 3.1647-6.3725 3.1647 8.661 0.61694c4.7636 0.33932 9.1217 1.0776 9.6847 1.6406 0.56302 0.56302 3.9979 1.0319 7.633 1.042 3.6352 0.01 11.25 0.67553 16.922 1.4788 17.494 2.4776 19.103 2.5789 20.643 1.3006 0.78856-0.65445 1.5429-1.0243 1.6764-0.82194 0.13345 0.20238 0.78466 1.0785 1.4471 1.9468 1.6057 2.1048 3.0593 40.775 1.8964 50.452-0.46467 3.8672-0.91858 7.875-1.0087 8.9062-0.31148 3.5645-11.456 4.0412-19.166 0.81991-1.6685-0.69714-6.7499-1.4823-11.292-1.7448-4.5422-0.26253-13.11-1.1641-19.04-2.0035-5.9297-0.83943-13.645-1.6101-17.146-1.7126-10.033-0.29384-9.5194 1.2969-9.8832-30.63l-0.31035-27.238-2.3654 0.59369c-1.301 0.32652-3.3732 1.254-4.6049 2.061l-2.2394 1.4674 0.11436 26.85c0.0629 14.767 0.32746 29.041 0.58791 31.72l0.47355 4.8701 4.7961 0.48993c2.6378 0.26946 7.3273 0.69829 10.421 0.95297 3.0938 0.25467 7.5234 0.67705 9.8438 0.93862s10.125 0.91675 17.344 1.456c7.2188 0.53921 15.234 1.1792 17.812 1.4222 2.5781 0.24297 9.933 0.66606 16.344 0.9402 6.4112 0.27413 11.86 0.7021 12.109 0.95102 0.73812 0.73813 1.8638 0.51838 2.4838-0.48489zm-12.291-15.927 2.7093-0.0103-0.78685-5.3906c-0.43276-2.9648-0.81924-12.469-0.85882-21.12l-0.072-15.729-2.5374-1.3164c-3.1455-1.6319-29.242-4.0716-47.57-4.4471l-13.594-0.27853 0.0675 21.349c0.0786 24.84-0.97165 22.806 12.154 23.535 5.6903 0.31596 12.651 0.9874 15.469 1.4921 2.8175 0.50468 9.5172 1.1399 14.888 1.4116 5.3711 0.27168 10.012 0.74198 10.312 1.0451 0.30077 0.30315 2.0234 0.30779 3.8281 0.0103 1.8047-0.29748 4.5004-0.54551 5.9905-0.55118zm-55.937-20.761c-2.702-1.5122-1.6609-11.124 1.205-11.124 1.2936 0 3.7411 5.1612 3.7411 7.8892 0 2.8274-2.6164 4.5385-4.9461 3.2347zm18.59-2.2733c-2.6234-4.0038-1.6234-5.6201 3.2516-5.255 5.49 0.41112 7.6652 2.2999 4.5617 3.9609-1.2097 0.64739-2.7656 1.7433-3.4576 2.4353-1.7877 1.7877-2.5711 1.5825-4.3557-1.1412zm18.566 0.98158c-0.86268-2.2482 0.58675-9.8322 1.8791-9.8322 2.086 0 3.4113 2.1854 3.4113 5.625 0 4.7968-3.8801 7.8824-5.2904 4.2072zm-29.364-2.2706c-2.3053-4.3074-0.0562-12.444 2.5469-9.2138 1.3998 1.7371 2.3387 6.9472 1.6456 9.1311-0.76235 2.402-2.9283 2.4447-4.1924 0.0827zm-76.037-23.395c2.7995-1.0674 5.5206-2.3713 6.0469-2.8976 0.52629-0.52629 1.5268-0.95688 2.2234-0.95688s5.9911-2.2562 11.766-5.0137c5.7745-2.7576 11.976-5.5585 13.78-6.2243 4.0074-1.4785 11.416-4.7839 20.156-8.9922 3.6094-1.738 9.3047-4.0229 12.656-5.0776 3.3516-1.0547 7.8225-3.1548 9.9355-4.6669 2.1129-1.5121 5.0485-2.9681 6.5234-3.2355 1.475-0.26745 4.5977-1.4144 6.9395-2.5487s5.7344-2.7824 7.5391-3.6624 4.9688-2.116 7.0312-2.7467c5.0875-1.5557 10.271-3.7262 16.264-6.8106 2.7577-1.4192 5.3505-2.3725 5.7618-2.1183 0.4113 0.25421 4.4111-1.4382 8.8885-3.761s8.4813-4.0127 8.8976-3.7554c0.41631 0.25729 1.2783-0.16037 1.9154-0.92812 0.63718-0.76776 1.6923-1.3959 2.3448-1.3959s3.2961-1.4513 5.8748-3.2252c6.1901-4.258 10.642-6.0461 13.63-5.4749 2.4189 0.4624 6.9326-1.2234 15.841-5.9164 4.1233-2.1721 10.929-4.9124 29.332-11.81 19.663-7.37 32.182-12.314 35.342-13.958 1.9068-0.99171 4.0225-1.8031 4.7014-1.8031s2.7616-0.81853 4.6282-1.819 6.6055-2.868 10.531-4.15c8.7092-2.8445 13.147-4.7075 21.672-9.0971l6.5625-3.3791 0.26006-13.855 0.26006-13.855-3.4474 0.64675c-1.8961 0.3557-7.4098 2.5106-12.253 4.7887-4.8428 2.2781-9.9476 4.4198-11.344 4.7593-1.3963 0.33955-5.16 1.8078-8.3637 3.2627-3.2038 1.455-7.0006 2.9378-8.4375 3.2953-1.4369 0.35748-3.8781 1.3402-5.425 2.1838-1.5469 0.84358-4.7109 2.0685-7.0312 2.7221-2.3203 0.65356-6.7775 2.4002-9.9048 3.8814-7.0607 3.3441-13.154 5.6365-16.765 6.3073-1.5202 0.28237-4.9605 1.7188-7.6451 3.1922s-5.7134 2.6788-6.7306 2.6788-2.331 0.58023-2.9196 1.2894-3.066 1.832-5.5054 2.4952c-2.4394 0.66316-5.9119 1.969-7.7166 2.9019-1.8047 0.93288-6.6562 2.9401-10.781 4.4605-4.125 1.5204-11.297 4.2989-15.938 6.1745-4.6406 1.8756-13.922 5.541-20.625 8.1452-6.7031 2.6043-13.453 5.279-15 5.9439-1.5469 0.66483-6.1875 2.5614-10.312 4.2146s-8.8294 3.5951-10.454 4.3153c-1.6248 0.72027-3.6181 1.3096-4.4296 1.3096-0.81149 0-4.1227 1.4174-7.3583 3.1497-3.2356 1.7324-8.836 4.0901-12.445 5.2394-3.6094 1.1493-10.781 3.9029-15.938 6.119-18.71 8.0414-27.737 11.74-36.749 15.059-5.0535 1.8608-10.876 4.1337-12.938 5.0507-2.0625 0.91704-5.4375 2.3876-7.5 3.2679-18.702 7.9823-17.797 7.4684-18.12 10.287-0.52479 4.5728 0.93142 4.6772 9.4675 0.67826 10.723-5.0234 14.503-6.6432 18.965-8.1264 11.576-3.8478 18.125-6.3132 20.625-7.7641 1.5469-0.89774 4.9219-2.3902 7.5-3.3165 2.5781-0.92636 7.6406-2.8913 11.25-4.3666 12.022-4.9139 18.714-7.242 22.5-7.8278l3.75-0.58022-4.2188 2.3561c-2.3203 1.2958-4.8516 2.7082-5.625 3.1385-0.77344 0.43031-2.25 1.2053-3.2812 1.7222s-6.0938 3.0681-11.25 5.6694-11.062 5.441-13.125 6.3107-7.2719 3.2689-11.576 5.3317c-4.3046 2.0628-9.4118 4.3098-11.349 4.9935-1.9377 0.68364-5.7986 2.276-8.5798 3.5387-2.7812 1.2626-7.3771 3.0486-10.213 3.9688-11.158 3.6208-22.305 13.244-11.953 10.319 4.6671-1.3186 23.198-8.2487 34.453-12.885 4.8984-2.0177 13.547-5.2752 19.219-7.2389 5.6719-1.9637 13.266-4.8363 16.875-6.3836 6.7279-2.8841 16.147-4.8786 15.109-3.1994-0.308 0.49836-1.7241 1.196-3.147 1.5502-1.4228 0.35424-4.7766 2.0942-7.4527 3.8667-4.124 2.7314-14.525 7.9061-21.384 10.639-1.0312 0.41089-6.0938 2.6822-11.25 5.0474s-11.695 5.2006-14.531 6.301c-11.739 4.5549-13.909 5.4644-20.699 8.6765-15.614 7.386-12.173 10.006 4.6954 3.5749zm96.629-50.615c0-2.6794 23.89-14.177 29.457-14.177 5.1941 0-0.1424 4.3535-8.768 7.153-2.3554 0.76445-5.5481 1.9687-7.095 2.6761-11.438 5.2307-13.594 5.9203-13.594 4.3482zm7.5-15.572c0-1.7519 17.56-8.9389 21.797-8.921 2.2171 9e-3 0.0793 1.8476-3.75 3.2245-7.0238 2.5256-11.816 4.4003-13.581 5.3122-1.7452 0.90185-4.4658 1.136-4.4658 0.38427zm50.182-13.495c3.2805-3.1308 23.126-8.5113 20.13-5.4578-1.6316 1.6632-17.003 7.2224-19.971 7.2224-1.9966 0-1.9976-0.0106-0.15968-1.7646zm1.5907-10.586c0.75288-2.2586 5.1212-4.5064 13.318-6.8528 9.6423-2.7603 13.193-1.8146 4.5944 1.2235-3.0065 1.0622-8.3515 3.0175-11.878 4.3451-3.9171 1.4748-6.2647 1.9744-6.0346 1.2843zm391.79 44.622c-0.4739-5.1165-0.9259-14.696-1.0044-21.288-0.1716-14.411-0.1313-14.286-5.0178-15.526-5.2821-1.3408-5.2096-1.6092-5.016 18.596l0.1679 17.5 3.5447 3.1124c1.9498 1.7118 4.1921 4.3638 4.983 5.8934 2.4609 4.7587 3.2819 1.8538 2.3426-8.2878zm-552.78 3.2041c3.0938-1.0421 10.477-3.7907 16.406-6.108s15.633-6.111 21.562-8.4303c5.9297-2.3194 11.625-4.531 12.656-4.9148 1.0312-0.38376 3.7734-1.5636 6.0938-2.6219 5.7071-2.603 14.137-5.9007 15.083-5.9007 0.88238 0 20.178-8.0073 22.639-9.3947 0.89535-0.50479 2.2536-0.9178 3.0184-0.9178 0.76476 0 2.9499-0.87587 4.8558-1.9464 1.9059-1.0705 5.8211-2.7858 8.7004-3.8118 6.5242-2.3248 11.767-4.3776 16.016-6.2713 4.3327-1.9308 14.861-5.7382 17.812-6.4415 1.2891-0.30718 2.5547-0.83401 2.8125-1.1708 0.71985-0.94023 6.4226-3.4336 12.656-5.5336 3.0938-1.0422 8.4634-3.187 11.933-4.7661s7.1357-2.8712 8.1478-2.8712 2.0942-0.41092 2.4046-0.91314c0.3104-0.50223 2.5501-1.5257 4.9772-2.2744s7.9988-2.9038 12.382-4.7891c4.3828-1.8853 9.8672-4.072 12.188-4.8593 4.0746-1.3825 6.6774-2.4663 16.162-6.7295 2.4436-1.0984 4.8574-1.9971 5.3639-1.9971s3.2987-1.0515 6.2048-2.3368 5.6125-2.1336 6.0143-1.8853c0.40174 0.24829 1.2174-0.13535 1.8126-0.85251 0.5952-0.71717 2.1661-1.576 3.4909-1.9085s4.1552-1.391 6.2897-2.3523c13.201-5.9448 34.006-14.316 36.642-14.744 1.7094-0.27739 4.2549-1.5679 5.6568-2.8678l2.5489-2.3635-0.57714-37.547c-0.67315-43.793 1.0392-41.188-20.703-31.5-1.0312 0.45952-7.9922 2.9094-15.469 5.4442-15.326 5.1958-31.409 10.944-34.219 12.23-1.0312 0.47205-5.4609 2.1237-9.8438 3.6703-19.622 6.9241-24.337 8.6543-30.938 11.353-3.8672 1.5811-7.875 3.2732-8.9062 3.7603-2.0559 0.97098-21.164 8.051-32.578 12.071-9.5871 3.3764-11.598 4.1222-22.266 8.2599-5.9297 2.2999-11.836 4.5287-13.125 4.9531-1.2891 0.42434-6.1406 2.4527-10.781 4.5074-4.6406 2.0547-9.7254 4.0178-11.299 4.3624-1.574 0.3446-4.9151 1.666-7.4245 2.9364s-5.4755 2.3099-6.5912 2.3099-2.3178 0.28912-2.6711 0.64251c-0.77917 0.77916-6.1323 2.7902-11.858 4.4547-5.5342 1.6089-16.218 5.952-21.337 8.6738-2.241 1.1916-4.8659 2.1665-5.8331 2.1665-0.96713 0-2.3601 0.60167-3.0955 1.337-1.697 1.6969-12.489 6.2682-15.103 6.3972-1.0863 0.0536-2.397 0.39601-2.9127 0.76088-0.51562 0.36486-2.4141 0.97702-4.2188 1.3604-8.7446 1.8575-20.312 8.526-20.312 11.71 0 3.7093 4.0191 3.6117 12.17-0.29565 2.6737-1.2817 8.2362-3.4881 12.361-4.9032 7.6184-2.6134 15.659-5.7884 22.576-8.9144 6.886-3.1121 13.777-5.7162 27.581-10.423 7.4766-2.5494 14.511-5.2329 15.632-5.9635 1.9898-1.2965 17.497-7.9403 18.533-7.9403 0.287 0 0.52182 0.71109 0.52182 1.5802 0 1.8405-3.5688 5.9198-5.179 5.9198-0.60619 0-2.8434 1.2614-4.9717 2.803-2.1282 1.5417-8.6251 4.5463-14.438 6.677-5.8124 2.1307-13.521 5.2353-17.131 6.8993-7.98 3.6788-22.627 9.8707-23.35 9.8707-0.28841 0-4.4794 1.8984-9.3134 4.2188-4.834 2.3203-9.7345 4.2188-10.89 4.2188-7.599 0-24.416 10.071-24.416 14.621 0 5.0226 7.4611 3.8025 28.156-4.6041 5.9468-2.4157 11.117-4.3921 11.489-4.3921 0.37213 0 2.7509-1.0007 5.2861-2.2237s5.796-2.5215 7.2463-2.8855c1.4502-0.36398 4.8684-1.6825 7.5958-2.9301 8.5741-3.9219 16.449-7.1255 21.789-8.8638 2.8359-0.92318 7.6431-2.7928 10.683-4.1547 6.7543-3.0264 8.8961-2.663 6.6514 1.1284-1.2653 2.1372-3.8355 3.3945-14.823 7.251-7.3108 2.566-17.3 6.6322-22.199 9.0359-4.8984 2.4038-11.227 5.2989-14.062 6.4336-7.3571 2.9438-14.335 6.2252-31.406 14.769l-15 7.5075-0.29459 4.0013-0.2946 4.0013 3.1071-0.61905c2.8537-0.56858 8.9157-3.3155 25.138-11.391 3.3516-1.6685 7.1484-3.3332 8.4375-3.6993s4.897-1.8854 8.0176-3.3762c3.1206-1.4907 9.4226-4.0093 14.004-5.5969 4.5818-1.5876 9.4114-3.6474 10.732-4.5774 4.7885-3.3711 11.966-6.5642 22.3-9.9205 8.02-2.6048 5.5067 2.9404-2.9935 6.6048-3.1103 1.3408-8.1863 4.0466-11.28 6.0129-5.0452 3.2065-12.694 7.2781-19.219 10.23-1.2891 0.58328-2.9766 1.4545-3.75 1.9361-0.77344 0.48155-10.055 5.1707-20.625 10.42-31.703 15.745-33.146 16.642-33.873 21.061-0.77176 4.6928-0.65188 4.8001 3.2781 2.9352 1.7722-0.84094 3.6129-1.529 4.0906-1.529s4.8436-1.7279 9.7021-3.8398c9.2129-4.0047 22.883-9.6492 38.834-16.035 5.1562-2.0642 11.484-4.7146 14.062-5.8898 2.5781-1.1751 5.7422-2.4462 7.0312-2.8246 1.2891-0.37837 5.8754-2.1354 10.192-3.9044 4.3165-1.7691 8.0178-3.0468 8.2252-2.8394 1.1044 1.1044-1.3272 3.5508-6.3379 6.3762-3.0973 1.7465-7.1876 4.1838-9.0897 5.4163-1.902 1.2325-6.2005 3.4979-9.552 5.0342-3.3516 1.5363-8.4141 4.0337-11.25 5.5497-10.634 5.6847-43.293 21.394-44.476 21.394-0.67728 0-1.7264 0.59645-2.3314 1.3254-1.1323 1.3643-9.1782 5.5563-10.848 5.652-0.51562 0.0295-1.0801 1.0624-1.2544 2.2951-0.26074 1.8443-0.0116 2.1234 1.4062 1.5758 0.94771-0.36603 4.2544-1.5181 7.3481-2.5602zm119.53-66.719c0-2.2096 4.1148-5.1048 8.2031-5.7719 5.0601-0.82563 4.9994-0.45262-0.59435 3.6536-4.7354 3.4761-7.6088 4.276-7.6088 2.1183zm-3.75-19.688c0-2.4029 4.2807-5.1839 10.312-6.6996 3.3516-0.84222 6.8849-1.7652 7.8518-2.0511 4.4448-1.3142-0.2956 1.9507-8.4151 5.7958-9.9646 4.7189-9.7492 4.6536-9.7492 2.955zm0.9375-15.583c0-4.2255 32.092-18.799 41.397-18.799 4.8005 0-8.6398 7.3547-25.459 13.932-14.764 5.7731-15.938 6.1316-15.938 4.8677zm0.0143-17.628c0.0935-4.5796 34.723-18.047 46.406-18.047 7.3297 0 5.2103 1.8116-6.1079 5.221-2.8359 0.85425-8.5312 2.744-12.656 4.1994-4.125 1.4554-9.8203 3.3087-12.656 4.1185-2.8359 0.80976-6.4219 2.3108-7.9688 3.3356-2.7678 1.8336-7.045 2.5483-7.0169 1.1725zm408.28 97.734c-0.3048-5.6719-0.7537-14.092-0.9976-18.712-0.4533-8.5855-1.5552-11.542-3.3308-8.936-0.5939 0.87168-0.7341 5.2827-0.3724 11.711 1.6846 29.936 1.8204 30.91 3.9122 28.072 1.0604-1.4388 1.2262-3.9909 0.7886-12.134zm-26.819-32.818c-0.6716-10.733-1.3196-15.378-2.2799-16.345-1.8123-1.8242-2.5049-0.88147-2.4929 3.3932 0.078 27.777 0.119 28.285 2.3114 28.647 3.3557 0.55453 3.4433-4e-3 2.4614-15.695zm52.02-47.104c0.2961-1.9336 0.4743-14.906 0.396-28.828-0.078-13.922 0.1568-42.188 0.5221-62.812 1.5053-84.971 1.9439-78.237-4.9364-75.793-6.8135 2.4199-7.8457 14.898-5.7658 69.7 0.8833 23.273 1.5934 57.87 1.8524 90.248 0.057 7.1823 0.099 7.3042 3.1051 9.1371 4.0534 2.4714 4.2033 2.4202 4.8266-1.6509zm-551.44-4.5059c3.769-1.3181 7.6965-2.7661 8.7278-3.2178 4.7515-2.0813 8.8726-3.6031 14.062-5.1928 3.0938-0.94767 6.1093-2.0837 6.7012-2.5246 0.59193-0.44084 1.8576-1.0003 2.8125-1.2433 2.7406-0.69736 19.3-6.5271 21.893-7.7074 4.6204-2.1033 43.056-16.155 44.189-16.155 0.63631 0 2.8722-0.80032 4.9686-1.7785s7.3976-3.1122 11.78-4.7423c4.3828-1.6301 9.2344-3.5304 10.781-4.2229 1.5469-0.69253 6.3984-2.3628 10.781-3.7117 4.3828-1.3489 8.8125-2.8494 9.8438-3.3344 3.6878-1.7345 23.675-8.8244 25.312-8.979 0.51563-0.0487 2.8359-0.98967 5.1562-2.0911s10.336-4.1589 17.812-6.7944c14.472-5.1016 25.897-9.2675 40.312-14.7 8.477-3.1946 11.913-4.5682 18.281-7.3085 13.962-6.0079 43.489-15.69 46.501-15.248 3.3594 0.49306 3.2586 1.067 2.8929-16.482-0.30701-14.73-0.32794-14.858-2.3517-14.352-7.8218 1.952-11.098 2.971-15.636 4.8639-9.3008 3.8794-15.23 6.0693-16.433 6.0693-0.65069 0-4.1194 1.2495-7.7081 2.7767-3.5888 1.5272-12.387 4.7304-19.551 7.1183-7.1644 2.3879-16.612 5.7271-20.995 7.4204s-17.987 6.3554-30.231 10.36c-12.244 4.0048-22.738 7.8536-23.318 8.5529-0.58039 0.69935-2.2534 1.2715-3.7178 1.2715-2.328 0-9.6771 2.2384-15.389 4.6873-1.0312 0.44211-4.1953 1.4969-7.0312 2.344s-6 1.9205-7.0312 2.3853c-1.0312 0.46485-3.5625 1.4343-5.625 2.1544-2.0625 0.72008-9.2344 3.2971-15.938 5.7266-15.666 5.6783-25.763 9.2214-37.79 13.26-5.316 1.7853-10.378 3.6002-11.25 4.0331s-3.5885 1.4754-6.0377 2.3167c-2.4492 0.84129-6.457 2.218-8.9062 3.0592-2.4492 0.84129-5.2372 1.9282-6.1956 2.4153-3.7148 1.8882-12.885 4.397-14.211 3.888-0.76714-0.29437-2.1321 0.27827-3.0332 1.2726-0.90114 0.99428-6.0681 3.2061-11.482 4.9152-5.4141 1.7091-10.245 3.4723-10.734 3.9184-0.48985 0.44604-1.6557 0.81098-2.5908 0.81098s-2.6437 0.48744-3.7969 1.0832-2.7295 1.3771-3.5029 1.7364c-1.6478 0.76534-2.2296 3.6829-1.0853 5.4428 0.95689 1.4718 8.5853-2.046 8.5853-3.959 0-2.2578 2.2734-4.3126 3.7454-3.3853 1.2023 0.75739 1.1356 1.086-0.46875 2.3097-5.0083 3.8202 13.748-1.8326 40.317-12.151 21.111-8.1984 32.09-12.104 40.781-14.507 2.3203-0.64148 6.7264-1.9604 9.7914-2.9308 23.631-7.4825 2.1097 3.9739-25.513 13.581-6.5641 2.283-15.732 5.7215-20.372 7.6411-17.907 7.4074-36.287 14.513-37.54 14.513-0.72023 0-2.6934 0.75678-4.3849 1.6817-1.6915 0.92496-5.5012 2.4889-8.466 3.4754-5.108 1.6996-5.3906 1.9555-5.3906 4.8808 0 4.3545 3.3052 3.651 22.969-4.8891 1.5469-0.67182 8.5874-3.1716 15.646-5.555 7.0582-2.3835 15.237-5.3967 18.175-6.6961 6.5842-2.9118 50.232-17.438 50.773-16.898 0.59711 0.5971-10.859 6.6811-16.156 8.58-2.5781 0.9242-5.1094 1.9883-5.625 2.3648-0.51563 0.37642-2.8359 1.186-5.1562 1.7991-2.3203 0.61309-7.5938 2.7118-11.719 4.6637-12.685 6.0025-15.86 7.3195-21.624 8.9706-5.1152 1.4651-26.132 9.2599-32.751 12.147-1.5469 0.67468-4.7109 1.9367-7.0312 2.8044-5.5506 2.0758-7.5 3.9448-7.5 7.1907 0 3.2125-0.66645 3.1891 7.6785 0.27064zm119.85-58.879c2.466-2.2909 23.833-10.159 48.424-17.832 5.7176-1.784 5.9176-1.8036 5.9176-0.58004 0 0.51562-0.45302 0.9375-1.0067 0.9375s-5.104 2.0592-10.112 4.576c-9.734 4.892-21.811 9.1132-35.019 12.24-9.6617 2.2872-9.9846 2.3132-8.2036 0.6586zm8.404-13.086c0-0.74944 1.3711-1.9886 3.0469-2.7536 19.766-9.024 23.057-10.258 31.875-11.956 6.8893-1.3266-3.525 6.2762-11.016 8.0419-1.5469 0.36462-3.2344 0.9663-3.75 1.3371-0.78278 0.56289-7.2574 2.7319-18.047 6.0458-1.5171 0.46597-2.1094 0.2653-2.1094-0.71473zm394.04-7.396c-0.2026-39.295-0.5491-71.626-0.7701-71.846-0.7032-0.7032-10.304 3.1178-10.261 4.0836 0.1745 3.8868 1.533 19.326 2.3086 26.239 0.5207 4.6406 1.1532 14.133 1.4056 21.094 0.2523 6.9609 0.8896 20.883 1.4159 30.938 0.5264 10.055 1.1505 24.188 1.387 31.406 0.8107 24.741 1.406 29.531 3.6702 29.531 0.9836 0 1.1426-13.462 0.8437-71.445zm-205.04 41.445c1.5676-2.3203 4.135-6.1172 5.7053-8.4375s6.3705-9.7031 10.667-16.406c4.2966-6.7031 9.8267-14.873 12.289-18.155l4.4772-5.9676 0.0736-18.876c0.0405-10.382 0.0828-19.509 0.0941-20.282s-0.22876-14.062-0.53345-29.531c-0.30468-15.469-0.58667-34.07-0.62663-41.337-0.1042-18.948-0.0546-18.965-15.366 5.1922-2.9634 4.6754-6.7042 9.3078-12.532 15.519-1.9352 2.0625-5.4796 6.1173-7.8764 9.0107l-4.3579 5.2607 0.39543 28.958c0.21748 15.927 0.45423 44.146 0.5261 62.708 0.17225 44.489-0.14852 43.021 7.0649 32.344zm178.4-16.69c-0.1609-19.661-1.1377-37.872-1.662-30.988-0.065 0.84718-0.6777 1.7553-1.3626 2.0181-1.3933 0.53469-1.2635 9.5882 0.3232 22.521 0.4945 4.0314 1.1795 12.574 1.5222 18.984 0.9756 18.25 1.3947 13.795 1.1792-12.536zm-497.67 12.447c1.5213-0.78667 2.7659-2.1922 2.7659-3.1234s0.79167-4.4008 1.7593-7.7103c0.96761-3.3095 2.4966-9.1813 3.3978-13.049 0.9012-3.8672 2.5765-9.9844 3.7229-13.594 1.1464-3.6094 2.5398-8.25 3.0965-10.312 0.55665-2.0625 1.85-6.2812 2.874-9.375s2.9998-9.6328 4.3905-14.531c1.3907-4.8984 2.8767-9.75 3.3021-10.781 0.42546-1.0312 1.4058-3.9844 2.1785-6.5625 2.691-8.9785 6.1673-18.141 9.9291-26.172 4.4008-9.3939 4.4861-9.902 1.6774-9.9832-1.1602-0.0336-5.3298-0.20304-9.2659-0.37662-8.1157-0.35791-7.4699-0.90776-10.974 9.3439-1.0575 3.0938-3.4338 9.8102-5.2805 14.925-3.3309 9.2263-13.947 58.012-15.827 72.731-0.9738 7.6254-1.8492 30-1.1738 30 0.36362 0 1.9058-0.64365 3.4271-1.4303zm24.157-8.6452c4.3497-1.4165 8.0195-2.9986 8.1551-3.5156 0.13558-0.51705 1.3423-4.526 2.6815-8.9088s2.8204-9.6562 3.2914-11.719c1.7512-7.6685 5.7614-22.108 7.9868-28.759 1.2636-3.7763 3.2414-10.03 4.395-13.897 1.1537-3.8672 2.4009-7.4531 2.7715-7.9688 0.37067-0.51563 0.98725-2.4002 1.3702-4.188 0.38292-1.7878 1.0372-3.8971 1.4539-4.6875 0.4167-0.79036 1.177-2.7026 1.6895-4.2495 0.51253-1.5469 2.0399-5.7656 3.3941-9.375 3.1083-8.2845 6.1078-17.089 6.1078-17.928 0-4.0138-17.193 28.163-24.858 46.522-1.3993 3.3516-3.3397 7.2136-4.3119 8.5822-0.97226 1.3687-1.7678 3.1274-1.7678 3.9083s-1.6728 4.7236-3.7173 8.7615c-4.4316 8.7523-8.8989 18.626-9.8966 21.873-0.39604 1.2891-1.5749 4.2422-2.6197 6.5625-3.3583 7.4584-7.204 18.743-7.204 21.139 0 0.97638 3.6453 0.26808 11.078-2.1525zm21.449-7.5406c0.61638-0.39185 1.5732-2.8112 2.1263-5.3763 4.9764-23.08 7.7914-33.054 12.959-45.914 2.2791-5.6719 5.5609-14.221 7.2929-18.998 2.9593-8.162 10.583-26.777 14.563-35.56 0.98026-2.1631 1.7823-4.1782 1.7823-4.478 0-0.29978 3.3915-7.5695 7.5366-16.155s7.3224-16.168 7.0607-16.85c-0.66324-1.7284-3.0075-1.5467-5.166 0.40044-1.0003 0.90235-3.9742 3.3281-6.6086 5.3906-6.8927 5.3963-8.9866 8.4913-7.5547 11.167 0.94891 1.773 0.79522 2.6941-0.96504 5.7836-1.1515 2.021-2.4052 5.1512-2.786 6.9559-0.68808 3.2608-4.1673 12.956-10.766 30-1.8964 4.8984-4.1516 10.805-5.0115 13.125-0.85989 2.3203-1.8202 4.6406-2.134 5.1562-0.31383 0.51562-2.1615 6.4219-4.106 13.125s-3.8584 12.82-4.2531 13.594-1.4324 4.7812-2.306 8.9062c-0.87358 4.125-2.159 9.2642-2.8565 11.42s-1.4225 5.4247-1.6111 7.2632-0.62526 3.6251-0.97033 3.9702c-2.992 2.992 0.34828 9.2519 3.7745 7.0737zm34.504-12.178 4.6875-1.6956 3.0354-20.114c1.6694-11.063 3.4372-22.856 3.9283-26.208 0.49111-3.3516 1.1041-6.9375 1.3622-7.9688 0.25809-1.0312 1.1724-5.0391 2.0319-8.9062 3.5049-15.771 15.557-54.696 19.239-62.136 3.4698-7.012 4.7512-12.198 3.358-13.592-1.3816-1.3816-4.3612-0.59811-4.3612 1.1467 0 0.63551-1.0242 1.6221-2.2761 2.1925-2.3261 1.0598-10.386 16.353-14.434 27.389-4.7629 12.983-5.8176 16.081-8.6182 25.312-1.6425 5.4141-3.5688 11.742-4.2807 14.062-1.5958 5.2011-6.7103 25.696-7.3694 29.531-1.3759 8.0054-4.2687 23.064-5.2229 27.188-0.59657 2.5781-1.2312 6.9436-1.4104 9.701-0.19665 3.0271-0.96152 5.7161-1.9305 6.7868-1.7783 1.965 1.2043 1.3109 12.261-2.6887zm19.307-6.8582c9.5076-3.6665 7.9331 0.81548 14.46-41.16 3.2705-21.034 5.3529-30.247 11.846-52.408 2.0804-7.1003 2.3411-6.6063-3.1567-5.9822-4.0915 0.46447-4.5017 0.75379-5.5285 3.8992-0.61002 1.8686-1.8908 4.8678-2.8462 6.6649-0.95539 1.797-1.7371 3.5775-1.7371 3.9566 0 0.37907-1.0854 3.062-2.4119 5.9622-1.3265 2.9001-2.8292 7.6587-3.3392 10.575-1.0281 5.8781-1.8103 9.3569-5.1973 23.114-1.2694 5.1562-2.8482 11.695-3.5083 14.531-0.6601 2.8359-2.0716 8.3203-3.1367 12.188-1.0651 3.8672-2.208 9.5625-2.5398 12.656-0.33182 3.0938-0.81762 6.3633-1.0795 7.2656-0.61878 2.1317-0.62966 2.1334 8.1754-1.2622zm18.937-12.107c1.0533-7.2883 2.5876-14.985 3.6426-18.271 0.49654-1.5469 1.7228-5.9628 2.7251-9.8132 2.8277-10.863 8.6053-26.19 15.499-41.115 1.744-3.7759 3.1709-7.0388 3.1709-7.2507 0-1.0177 9.7062-19.758 15.659-30.234 2.9083-5.1179 1.7733-7.2221-3.4199-6.3402-1.8334 0.31134-5.6847 0.81513-8.5586 1.1195l-5.2252 0.55342-2.0171 6.2274c-3.6051 11.13-7.4352 23.934-8.593 28.727-0.62279 2.5781-1.9143 7.4297-2.8699 10.781s-2.6236 10.102-3.7066 15c-1.083 4.8984-2.4436 10.594-3.0236 12.656-1.0703 3.8056-1.3414 5.2545-3.9472 21.094-0.80588 4.8984-1.8734 10.805-2.3722 13.125-1.4591 6.7872-1.2622 9.5647 0.65204 9.1994 1.2079-0.23052 1.8368-1.6705 2.3843-5.4594zm16.6-0.40165c3.8672-1.351 7.6641-2.7978 8.4375-3.2151 0.77344-0.41732 3.8484-1.5224 6.8334-2.4558l5.4271-1.6971-0.5598-3.8446c-0.5177-3.5555 3.0814-18.091 6.0588-24.47 0.9342-2.0013 7.5575-21.875 9.3733-28.125 0.59919-2.0625 1.9027-6.7535 2.8967-10.424s2.6244-8.5809 3.6232-10.911 2.7034-8.3969 3.7881-13.482c1.0846-5.0849 2.6441-11.566 3.4655-14.401 5.024-17.346 5.144-16.419-2.2237-17.169-4.7196-0.48012-7.3707 0.45474-4.4585 1.5722 1.7555 0.67364 1.8293 3.0439 0.11526 3.7016-0.70709 0.27134-1.5729 1.6378-1.9239 3.0365-0.35107 1.3987-1.4346 3.2258-2.4078 4.0601-2.8495 2.4427-18.111 31.027-26.087 48.861-1.0378 2.3203-3.1881 7.0488-4.7786 10.508-1.5904 3.459-2.8916 6.6293-2.8916 7.0451 0 0.41585-0.78475 2.2264-1.7439 4.0235-3.3757 6.3247-6.8189 18.016-7.1363 24.231-0.21478 4.2054-1.2638 8.568-3.2344 13.45-5.8212 14.423-5.8752 14.353 7.4271 9.7058zm4.4531-7.4355c-3.211-2.4775 0.27008-17.083 9.8724-41.421 1.8201-4.6134 4.3778-11.341 5.6838-14.95 6.3791-17.63 7.4284-20.222 8.9955-22.222 0.92757-1.1839 3.4388-5.6426 5.5806-9.908 3.828-7.6238 6.6883-11.463 8.5395-11.463 1.6974 0 1.011 1.8483-6.1385 16.529-3.8918 7.9912-7.8627 16.928-8.8243 19.86-0.96156 2.9317-3.1027 8.9163-4.7582 13.299-5.8041 15.366-14.2 41.746-14.173 44.531 0.0149 1.5469 0.15893 3.656 0.32009 4.687 0.35924 2.2981-2.675 2.9288-5.0976 1.0596zm72.3-18.87c10.332-3.032 10.86-3.5106 8.1953-7.4368-3.6422-5.3671-9.58-33.158-10.43-48.815-0.57088-10.519-1.7453-19.569-3.7106-28.594-0.72987-3.3516-1.5952-9.2578-1.923-13.125s-0.95999-8.5078-1.4049-10.312c-0.44489-1.8047-0.98724-6.5781-1.2052-10.608-0.49915-9.2267-0.15924-8.9654-12.404-9.5382-5.6523-0.26444-17.027-0.88508-25.277-1.3792s-21.75-1.1477-30-1.4525c-28.193-1.0414-35.628-1.3734-41.25-1.842-3.0938-0.25786-12.375-0.68813-20.625-0.95615-16.247-0.52784-45.932-1.8184-76.406-3.3218-20.813-1.0268-29.864-1.3983-55.781-2.2899-9.2812-0.31929-18.984-0.74712-21.562-0.95072-2.5781-0.20361-11.438-0.64568-19.688-0.98242-8.25-0.33672-16.266-0.74721-17.812-0.91219-3.912-0.41723-42.743-1.8589-50.102-1.8601l-6.0397-9.3e-4 -0.27422 7.5c-0.15082 4.125-0.49308 8.4234-0.76058 9.5519-0.78052 3.2929-0.40094 3.333 51.552 5.4366 6.7031 0.27142 15.141 0.69232 18.75 0.93534 3.6094 0.24302 18.797 0.86789 33.75 1.3886 14.953 0.52073 30.236 1.1793 33.961 1.4635 5.2129 0.39768 7.2857 0.18107 8.997-0.94021 1.547-1.0136 4.1928-1.4073 8.6953-1.2938 3.5595 0.0897 7.4412-0.1499 8.6261-0.53248 1.2399-0.40032 2.6785-0.26058 3.3891 0.3292 0.67913 0.56363 4.2152 1.399 7.8579 1.8564s7.0349 1.0862 7.5383 1.3972c0.97259 0.60109 6.5209 0.85746 51.717 2.3896 15.727 0.53314 31.758 1.1907 35.625 1.4612 7.7818 0.54437 15.532 0.87878 53.438 2.3059 46.352 1.745 50.96 2.6887 47.595 9.7455-1.049 2.1998-1.194 3.5352-0.51534 4.7478 0.5193 0.92795 0.71556 3.096 0.43613 4.818-0.30684 1.8908 0.41295 6.5834 1.8173 11.848 1.279 4.7943 3.1234 13.147 4.0988 18.561 0.97538 5.4141 2.2424 12.375 2.8157 15.469 2.404 12.973 2.5466 15.357 1.098 18.349-1.2505 2.5819-1.2347 4.0723 0.14616 13.835 1.5202 10.748 1.5142 10.987-0.34377 13.52-2.2829 3.1118-2.3721 3.109 7.4179 0.23615zm-157.36-43.596c0.99569-0.95173 5.1477-7.523 7.599-12.027l1.5269-2.8054-3.902-1.4902c-6.2559-2.3891-6.2982-2.3439-11.773 12.572-1.6085 4.3828-3.3232 8.8125-3.8104 9.8438-1.4949 3.1645-12.166 36.011-12.106 37.262 0.0311 0.64642 4.9882-8.7388 11.016-20.856 6.0274-12.117 11.18-22.242 11.449-22.5zm438.63 26.953c0.099-6.1404-0.5827-7.5769-2.4456-5.1562-1.0423 1.3543-0.90083 10.1 0.2843 17.578l0.8171 5.1562 0.6212-5.625c0.3417-3.0938 0.667-8.4727 0.723-11.953zm-213.65-8.2031c1.8047-0.98802 2.8594-1.8249 2.3438-1.8597-0.51563-0.0348-4.5234-0.26475-8.9062-0.51101s-11.66-0.66103-16.172-0.92172c-4.5117-0.26069-8.2031-0.1161-8.2031 0.32133 0 0.7216 2.2208 1.2115 17.344 3.826 7.2859 1.2596 10.049 1.0858 13.594-0.85492zm213.75-10.312c2.6752-2.6752 2.6996-10.312 0.033-10.312-2.4753 0-3.783 2.7333-3.783 7.9071 0 4.6888 0.89349 5.2619 3.75 2.4054zm-189.54-4.0841c0.20029-1.7512-0.047-2.4596-0.7146-2.047-0.56148 0.34701-4.0743 0.19121-7.8063-0.34623-3.732-0.53743-13.114-1.249-20.848-1.5812-16.125-0.6926-17.848-0.81703-28.324-2.0456-4.9468-0.58019-9.4707-0.57898-12.656 4e-3 -2.7267 0.49849-6.7506 0.70659-8.942 0.46244-4.1774-0.46543-4.2633-0.40056-3.4546 2.607 0.47665 1.7726 1.4108 1.8892 17.097 2.1344 9.1258 0.1427 19.756 0.6556 23.624 1.1398 3.8672 0.48418 13.356 1.137 21.085 1.4507 7.7297 0.31371 14.254 0.77002 14.498 1.014 1.656 1.656 6.1567-0.2945 6.4423-2.7919zm219.71-11.648c0.4885-0.48861 0.7558-2.5807 0.5938-4.6491l-0.2945-3.7607-5.1562 2.349c-2.8359 1.292-5.4662 2.8215-5.845 3.3989-0.8224 1.2535-0.9466 6.602-0.1714 7.3772 0.5847 0.58473 9.393-3.2352 10.873-4.7154zm-207.83-3.881c3.3452-5.5586 22.054-33.021 32.855-48.228 2.93-4.125 4.9279-14.66 2.7803-14.66-0.83566 0-4.2295 3.2157-4.2295 4.0075 0 1.0812-16.051 24.778-21.099 31.149-0.81707 1.0312-3.2304 4.5058-5.3629 7.7212s-4.043 5.6805-4.2455 5.478c-0.60195-0.60194 5.8446-12.021 11.678-20.686 2.9893-4.4402 7.1226-10.774 9.185-14.076s5.926-9.0946 8.5856-12.874c4.9108-6.9777 7.5704-19.074 5.0797-23.104-0.64562-1.0446-8.509 9.0452-8.509 10.918 0 0.27929-1.0162 1.8401-2.2581 3.4684-1.242 1.6283-2.9458 4.6065-3.7864 6.6181-0.84053 2.0117-1.8679 3.8833-2.283 4.1592-0.41512 0.27589-2.7616 3.2438-5.2144 6.5954s-4.7675 6.3047-5.1438 6.5625c-0.37629 0.25781-2.8779 3.7383-5.5591 7.7344s-5.064 7.2656-5.295 7.2656c-0.6057 0 1.5222-4.7524 3.3582-7.5 0.86135-1.2891 2.6861-4.4531 4.0551-7.0312 1.3689-2.5781 3.216-5.8175 4.1046-7.1985s3.4239-5.3889 5.6341-8.9062c5.0768-8.0796 10.962-16.529 15.257-21.905 5.9593-7.4585 6.0934-7.9086 5.5733-18.709-0.42354-8.7948-0.60702-9.6104-1.7219-7.6541-0.68631 1.2043-1.4727 1.9648-1.7476 1.6899-0.27484-0.27486 0.36753-1.903 1.4275-3.6181 1.7531-2.8365 2.8756-26.737 1.9936-42.449-0.0579-1.0312-0.0229-11.548 0.0779-23.37 0.22301-26.174 2.656-23.505-21.742-23.849-10.491-0.14773-20.34-0.44224-21.887-0.65446-2.8704-0.39379-38.838-1.7722-71.719-2.7485-10.055-0.29854-19.847-0.74014-21.761-0.98133-2.7938-0.35208-3.6781-0.06787-4.4861 1.4418-1.1423 2.1344-3.2898 2.594-2.4997 0.53496 0.77853-2.0288-12.847-2.877-76.253-4.747-9.5391-0.28132-27.68-0.9078-40.312-1.3922-12.633-0.48438-30.352-1.1185-39.375-1.4091-27.698-0.89202-44.221-1.5491-84.375-3.3552-12.117-0.54504-30.68-1.1553-41.25-1.356-10.57-0.20077-26.851-0.66086-36.18-1.0224l-16.961-0.6574-0.51746 5.533c-0.9972 10.663 0.60719 115.52 1.7852 116.68 0.42854 0.41968 7.1756 0.99423 14.993 1.2768l14.214 0.5137 0.67184-8.0653c0.36952-4.4359 0.38753-13.182 0.04-19.435-0.34752-6.2534-0.58137-17.065-0.51968-24.026 0.0617-6.9609 0.0753-14.977 0.0301-17.812-0.1441-9.0574-3.4696-8.7164 59.474-6.0985 5.1562 0.21446 16.969 0.62127 26.25 0.90403s22.148 0.78093 28.594 1.107c6.4453 0.32613 14.883 0.70208 18.75 0.83545 33.094 1.1414 42.109 1.4681 51.094 1.8518 5.6719 0.24225 19.383 0.66242 30.469 0.93372 11.086 0.27131 21.844 0.68541 23.906 0.92025s15.141 0.67539 29.062 0.97902c13.922 0.30362 29.32 0.75794 34.219 1.0096 4.8984 0.25166 17.344 0.63141 27.656 0.84386 23.55 0.4852 65.679 2.2255 69.389 2.8664 9.7476 1.6839 9.0898-4.067 9.5375 83.378 0.21124 41.25 0.40549 76.42 0.43168 78.156 0.0423 2.8012 0.16865 2.954 1.1257 1.3608 0.59297-0.98712 1.9219-3.1968 2.9531-4.9104zm5.1562-71.256c0-2.7036 24.899-37.358 26.029-36.228 0.86272 0.8627-5.7666 10.743-16.201 24.145-3.0852 3.9628-6.5586 8.5975-7.7188 10.299-1.1602 1.7018-2.1094 2.5043-2.1094 1.7833zm4.6875-32.356c0-2.3276 9.9016-15.857 17.346-23.702l2.4723-2.6051-2.1255 3.75c-2.5622 4.5204-5.4027 8.4695-11.463 15.938-5.7172 7.0446-6.2297 7.5892-6.2297 6.6193zm-278.34 99.084c0.7484-2.0221 0.55888-2.1164-4.5797-2.2787-12.613-0.39833-15.877-0.63273-19.423-1.3946-6.6821-1.4358-27.555-0.81373-29.241 0.87147-1.7614 1.7614 0.29633 2.096 23.616 3.8399 23.235 1.7376 28.671 1.5471 29.628-1.0381zm503.26-5.3497c7.8259-3.9657 7.7654-10.307-0.066-6.8508-4.4284 1.9548-6.8209 5.1338-5.8223 7.7363 0.693 1.8059 0.5271 1.8309 5.8876-0.88548zm-476.53-7.8951c2.6904-3.8042 6.702-8.7612 8.9145-11.016 2.2126-2.2544 3.6186-4.1649 3.1245-4.2454-1.9063-0.3108-6.0457-0.56278-18.711-1.139-7.2188-0.32843-14.812-0.80228-16.875-1.053-2.0625-0.25073-12.105-0.66822-22.316-0.92775-10.211-0.25955-19.359-0.89645-20.329-1.4154-0.96956-0.51889-4.7437-0.94344-8.387-0.94344h-6.6241v22.292l3.0469 0.51632c1.6758 0.28398 8.2254 0.52882 14.555 0.5441 11.988 0.029 28.407 1.2347 45.211 3.3204 13.581 1.6856 12.832 1.9271 18.391-5.9326zm61.028-11.13c0.34903-1.5106 0.0622-2.1094-1.0103-2.1094-0.8708 0-1.736 1.0791-2.067 2.5781-0.31316 1.418-1.4153 5.2298-2.4491 8.4708-3.0369 9.52-1.095 10.515 2.221 1.1386 1.5499-4.3828 3.0374-8.918 3.3054-10.078zm384.01 13.394c5.5479-2.4536 9.0568-4.9873 9.0997-6.5707 0.034-1.2633 5.5989-6.7189 5.5989-5.489 0 3.7296 4.743 3.06 15.707-2.2175 6.0563-2.9151 15.23-7.0577 20.386-9.2056 9.3871-3.9105 11.839-6.3371 9.1356-9.0408-0.9606-0.96058-14.392 3.6399-25.073 8.5878-7.8266 3.6256-19.418 8.4251-20.358 8.4296-0.3689 2e-3 -2.6663 1.2688-5.1055 2.8157-2.4391 1.5469-5.1667 2.8125-6.0612 2.8125-0.8946 0-3.1581 0.94922-5.03 2.1094-11.314 7.0122-10.015 12.949 1.6999 7.7686zm62.277-5.1802c2.4739-0.0121 3.2833-8.9937 0.8932-9.9109-2.9479-1.1312-14.416 5.3394-12.143 6.8513 1.1602 0.77163 2.1094 2.0395 2.1094 2.8175 0 1.1129 0.7497 1.2907 3.5156 0.83347 1.9336-0.3196 4.4649-0.58574 5.625-0.59141zm-81.199-6.4448c3.2806-1.4764 8.7068-3.8604 12.058-5.2976s11.789-5.3331 18.75-8.6574c6.9609-3.3244 15.758-7.5131 19.548-9.3083l6.8921-3.264-0.5197-3.9097c-0.2857-2.1504-0.8016-10.554-1.1462-18.675-0.3448-8.1211-0.8921-14.756-1.2163-14.745-2.1413 0.0757-5.102 3.6519-4.0614 4.9058 1.3547 1.6323 0.037 21.592-1.5506 23.506-0.5441 0.65544-1.2739 2.9731-1.6221 5.1503-0.8057 5.0383-1.9592 5.7184-4.475 2.638l-2.0055-2.4556-7.9687 4.1938c-8.2186 4.3253-13.327 6.8048-20.625 10.011-2.3203 1.0194-5.2734 2.4769-6.5625 3.2388-1.2891 0.76198-4.7333 2.488-7.6539 3.8356-5.1845 2.3922-7.3461 4.9208-7.3461 8.5932 0 3.714 1.6906 3.7568 9.5041 0.24016zm-395.84-9.8669c2.4575-2.9611-0.62595-6.1968-5.9228-6.2153-2.6243-9e-3 -8.5683-0.44298-13.209-0.96405-11.412-1.2814-37.08-2.5668-66.797-3.345l-24.609-0.64449v2.0164c0 1.6365 0.57408 2.0287 3.0469 2.0818 10.511 0.22578 17.756 0.90101 19.461 1.814 1.0977 0.58751 6.5959 1.0723 12.462 1.0989 17.624 0.0798 67.64 3.2001 69.609 4.3426 2.4864 1.4424 4.6637 1.3749 5.9582-0.18473zm61.802-0.66496c1.6552-2.6505 3.1023-2.4448-19.977-2.8385-19.039-0.32474-20.63-0.22673-20.928 1.2892-0.32981 1.6797 14.46 2.6206 16.059 1.0217 1.0119-1.0119 13.088-0.30173 18.055 1.0617 2.5338 0.69547 4.8218 1.3022 5.0845 1.3483 0.26269 0.0461 1.0302-0.801 1.7056-1.8825zm7.5537-9.1704c3.6669-2.8196 3.8887-2.7905-33.174-4.3445-6.7031-0.28105-15.984-0.70691-20.625-0.94638-11.734-0.60548-24.655-1.211-49.219-2.3066-35.366-1.5774-44.502-2.0832-45.207-2.5026-0.37149-0.22121-4.9454-0.61421-10.164-0.87335-5.2189-0.25913-11.496-0.85182-13.949-1.3171-5.8507-1.1096-8.4921-0.38548-8.4921 2.328 0 3.6826 1.6794 4.0748 17.821 4.1619 17.029 0.092 26.253 0.4413 65.148 2.4676 14.438 0.75217 31.312 1.6027 37.5 1.89s11.805 0.70153 12.484 0.92043c0.67867 0.21889 9.9599 0.65943 20.625 0.97898 10.665 0.31956 19.567 0.74396 19.782 0.94311 1.0399 0.96393 5.4789 0.13236 7.4713-1.3996zm400.73-13.702 3.4848-1.456-0.7269-6.3056c-0.3999-3.4681-0.7269-48.177-0.7269-99.353 0-71.086-0.2623-93.047-1.1109-93.047-4.5376 1.75e-4 -5.7722 1.647-5.7596 7.683 0.017 8.0152-0.9986 24.705-1.9717 32.411-1.0593 8.3903-0.3625 44.784 0.9026 47.148 0.7012 1.3102 0.6554 3.535-0.1584 7.6912-0.7882 4.0254-1.1332 17.388-1.1072 42.879 0.021 20.367-0.3019 41.883-0.7174 47.812-1.232 17.585-0.8942 18.207 7.8916 14.536zm-41.774-31.416c2.9519-1.0342 6.5542-2.7542 8.0051-3.8223 3.1604-2.3265 8.8794-1.7972 11.466 1.0613 2.5956 2.8682 3.2462 1.2764 2.624-6.4199-0.7053-8.7229-0.3042-8.2086-4.6844-6.0061-1.9835 0.99744-5.2939 2.3342-7.3564 2.9706-4.3713 1.3487-23.906 12.261-23.906 13.355 0 1.427 8.5303 0.726 13.852-1.1382zm-64.825-27.699c1.9965-0.79963 4.8957-2.0546 6.4426-2.7889 13.877-6.5868 40.86-15.94 51.094-17.711 4.3828-0.75844 9.8672-2.0987 12.188-2.9783 2.3203-0.87963 6.3281-1.8523 8.9063-2.1615 4.7799-0.5733 6.2497-2.454 4.8233-6.1714-0.5597-1.4583-7.2145-0.17707-10.423 2.0066-1.0171 0.69232-2.7538 1.2588-3.8594 1.2588-1.1055 0-4.0702 0.79718-6.5882 1.7715-2.518 0.97434-6.4766 2.2917-8.7969 2.9275s-6.1172 1.7234-8.4375 2.417c-2.3203 0.69353-6.3281 1.719-8.9062 2.2789-2.5782 0.55988-7.31 2.2537-10.515 3.7641-3.2053 1.5104-7.61 3.0311-9.7884 3.3795-2.1784 0.34833-5.0403 1.1968-6.3598 1.8854s-2.9576 1.2546-3.6401 1.2578c-1.0139 5e-3 -10.995 3.087-17.04 5.2622-1.098 0.39507-0.82959 1.0048 1.2242 2.781 3.0738 2.6586 4.7368 2.7997 9.677 0.82114zm85.013-69.197c0.9313-2.4268 1.8651-25.225 1.0167-24.823-9.6645 4.5798-16.829 8.4521-20.914 11.304-2.7925 1.9495-5.7456 3.558-6.5625 3.5744-0.8168 0.0164-2.3041 0.64921-3.3049 1.4062-1.001 0.75704-2.5581 1.3764-3.4603 1.3764-0.9023 0-1.8469 0.33388-2.0991 0.74196s3.4143 0.60344 8.1478 0.43414c8.3391-0.29826 8.8538-0.19314 16.575 3.3852 8.9899 4.1663 9.9137 4.3928 10.602 2.6zm-180.75-23.555c8.2465-2.3133 16.47-4.6316 18.275-5.1516 3.7157-1.0707 24.804-6.6674 36.094-9.579 4.125-1.0638 8.3438-2.2739 9.375-2.6891 1.0312-0.41515 9.0469-2.715 17.812-5.1108 8.7656-2.3958 18.469-5.1303 21.562-6.0767 6.2294-1.9056 22.877-6.5665 35.156-9.8431 4.3828-1.1695 12.398-3.4746 17.812-5.1224s14.695-4.4141 20.625-6.1472c5.9297-1.7331 14.98-4.381 20.111-5.8841 11.871-3.4772 12.264-4.5765 1.7224-4.8185-4.532-0.10404-11.615-0.4101-15.74-0.68014s-8.5547-0.48465-9.8438-0.4769c-18.08 0.10871-48.656-0.04917-60.469-0.31225-8.25-0.18372-38.414-0.57159-67.031-0.86193s-66.902-0.77913-85.078-1.0862c-31.65-0.53472-33.049-0.48546-33.087 1.1658-0.022 0.94825-0.17399 7.6807-0.33768 14.961-0.31828 14.156-0.83873 16.575-2.9637 13.772-0.95643-1.2615-1.2941-5.3641-1.3162-15.994l-0.02981-14.297h-4.5727c-6.2676 0-6.327 0.15327-7.4597 19.219-1.6342 27.507-2.4672 33.281-4.8015 33.281-1.7335 0-2.1254-4.599-1.2179-14.294 0.4949-5.287 0.98034-15.694 1.0788-23.127 0.0984-7.4329 0.36737-13.819 0.59767-14.192 0.23032-0.37266-0.94804-0.87936-2.6186-1.126-5.2971-0.78211-64.348-0.67483-64.838 0.1178-0.43742 0.70775-1.5465 32.606-1.826 52.516l-0.12355 8.8018 3.2812 0.26412c1.8047 0.14526 11.508 0.5221 21.562 0.83741 10.055 0.31531 22.711 0.75163 28.125 0.96961s18.492 0.64201 29.062 0.94231c30.632 0.87022 57.422 2.2949 60.469 3.2156 4.3725 1.3213 4.728 1.2662 20.631-3.195zm-182.78-4.9345c-0.69363-1.7931-0.75166-33.635-0.0881-48.344 0.4798-10.636 0.2723-11.515-2.9067-12.312-5.8876-1.4777-5.9127-1.3939-5.9787 19.934-0.033 10.667-0.37954 23.613-0.7701 28.769-1.0004 13.207-0.9777 13.252 6.7623 13.485 3.0817 0.09268 3.5222-0.13364 2.9813-1.5319zm14.5-6.0938c2e-3 -4.2539 0.27992-18.176 0.61772-30.938l0.61418-23.203h-9.3889l-0.75075 22.266c-1.3852 41.081-1.5602 39.609 4.7123 39.609h4.192l4e-3 -7.7344zm-30.533 5.68c1.7116-5.3651 2.9082-58.925 1.3387-59.92-1.7877-1.1326-23.049-1.0437-25.196 0.1053-0.96982 0.51904-5.0554 1.6162-9.079 2.4381-4.0236 0.82191-10.269 2.0927-13.878 2.8239-10.371 2.1011-9.6174 1.3621-10.205 10.004-1.5493 22.768-1.3378 41.466 0.48961 43.294 0.20137 0.20136 7.1104 0.66011 15.353 1.0194 8.243 0.35933 15.073 0.72007 15.177 0.80165 1.2368 0.9691 25.68 0.43712 26-0.56586zm-68.034-17.399c0.0141-8.6367 0.1536-19.642 0.30996-24.456l0.28429-8.7525-3.6606 0.58368c-2.0133 0.32102-3.9871 0.78549-4.3862 1.0322-0.78722 0.48654-1.413 22.043-1.0296 35.467 0.28969 10.143 1.0424 11.828 5.2838 11.828h3.1727l0.0257-15.703z"/>
</svg>
